<?xml version="1.0" encoding="UTF-8" standalone="no"?>
<!-- Created with Inkscape (http://www.inkscape.org/) -->

<svg
   xmlns:dc="http://purl.org/dc/elements/1.1/"
   xmlns:cc="http://creativecommons.org/ns#"
   xmlns:rdf="http://www.w3.org/1999/02/22-rdf-syntax-ns#"
   xmlns:svg="http://www.w3.org/2000/svg"
   xmlns="http://www.w3.org/2000/svg"
   xmlns:sodipodi="http://sodipodi.sourceforge.net/DTD/sodipodi-0.dtd"
   xmlns:inkscape="http://www.inkscape.org/namespaces/inkscape"
   width="500"
   height="500"
   viewBox="0 0 132.29166 132.29167"
   version="1.1"
   id="svg10195"
   inkscape:version="0.92.2 5c3e80d, 2017-08-06"
   sodipodi:docname="accessories.svg">
  <defs
     id="defs10189" />
  <sodipodi:namedview
     id="base"
     pagecolor="#ffffff"
     bordercolor="#666666"
     borderopacity="1.0"
     inkscape:pageopacity="0.0"
     inkscape:pageshadow="2"
     inkscape:zoom="0.35"
     inkscape:cx="-125.71429"
     inkscape:cy="560"
     inkscape:document-units="mm"
     inkscape:current-layer="layer1"
     showgrid="false"
     units="px"
     inkscape:window-width="1920"
     inkscape:window-height="1035"
     inkscape:window-x="0"
     inkscape:window-y="1"
     inkscape:window-maximized="1" />
  <metadata
     id="metadata10192">
    <rdf:RDF>
      <cc:Work
         rdf:about="">
        <dc:format>image/svg+xml</dc:format>
        <dc:type
           rdf:resource="http://purl.org/dc/dcmitype/StillImage" />
        <dc:title></dc:title>
      </cc:Work>
    </rdf:RDF>
  </metadata>
  <g
     inkscape:label="Layer 1"
     inkscape:groupmode="layer"
     id="layer1"
     transform="translate(0,-164.70832)">
    <path
       style="fill:#ffffff;stroke-width:0.25234491;fill-opacity:1"
       d="m 12.416011,294.72411 c -0.428141,-0.18641 -1.022598,-0.64933 -1.321018,-1.0287 -1.2423267,-1.57937 -1.2819405,-1.22725 2.09858,-18.65423 4.794408,-24.71581 7.339268,-36.27025 9.341603,-42.41375 1.43498,-4.40277 3.609839,-7.89333 6.080193,-9.75846 l 1.345273,-1.0157 -3.062829,-5.94563 c -2.543966,-4.93842 -3.062822,-6.13282 -3.062822,-7.05056 0,-1.24958 0.59068,-2.22201 1.768851,-2.91208 0.708713,-0.41511 8.663915,-1.49655 18.502861,-2.51531 3.950584,-0.40906 18.874972,-0.39648 26.748558,0.0225 26.587767,1.41497 34.302859,1.99263 36.295979,2.71766 1.916,0.69699 2.63054,2.80843 1.5501,4.58054 -0.27967,0.45871 -2.34102,3.12726 -4.58077,5.9301 -2.23976,2.80284 -4.175572,5.2303 -4.301803,5.39436 -0.154499,0.20079 0.263343,0.9185 1.278393,2.19583 4.33503,5.45515 7.13142,11.45632 10.77275,23.11889 1.06167,3.40035 2.7636,8.73744 3.78207,11.86022 2.70475,8.29306 3.19494,10.25641 6.18173,24.75932 1.60413,7.7892 1.62338,8.20023 0.45379,9.68713 -1.16096,1.47593 2.41854,1.38738 -55.650914,1.37665 -44.158971,-0.008 -53.577362,-0.0687 -54.220575,-0.34881 z m 16.792027,-6.66327 0.585386,-2.47976 -0.766689,-1.99937 c -2.392313,-6.23868 -2.265639,-14.09208 0.348635,-21.61357 1.862148,-5.35755 5.070342,-10.90183 8.728508,-15.08429 3.412185,-3.90123 6.3199,-6.0456 11.647731,-8.58997 15.039481,-7.18227 27.800559,-6.14043 39.953319,3.26185 6.010251,4.64998 9.898996,10.77379 11.556612,18.19878 0.26055,1.16707 0.47417,3.58711 0.55725,6.3129 0.16157,5.30094 -0.26761,8.75734 -2.208499,17.78604 -0.68621,3.19216 -1.248056,6.00265 -1.24855,6.24554 -7.15e-4,0.41313 0.641646,0.4416 9.966779,0.4416 9.5576,0 9.96763,-0.0194 9.96763,-0.47045 0,-0.49376 -1.94312,-10.02697 -3.27307,-16.05814 -0.87266,-3.95745 -2.51252,-9.91437 -3.2814,-11.91999 -0.27864,-0.72682 -1.75232,-5.32581 -3.27485,-10.21997 -4.66252,-14.98752 -6.94539,-19.94809 -11.891128,-25.83891 l -1.722863,-2.0521 -9.790777,-0.18846 c -11.871863,-0.22853 -44.343768,0.0547 -47.109515,0.4109 -5.451902,0.70214 -8.481047,3.1003 -10.487344,8.30281 -1.956941,5.07453 -4.82869,17.88096 -9.873203,44.02916 -1.392313,7.21707 -2.589947,13.32066 -2.661399,13.56355 -0.121503,0.41299 0.317911,0.4416 6.781062,0.4416 h 6.91098 z m 34.879275,-0.80073 c 1.03905,-7.324 0.829908,-10.8256 -0.858342,-14.37103 -0.93347,-1.96034 -0.956639,-2.89993 -0.0928,-3.76376 0.834379,-0.83438 2.166412,-0.86481 3.013688,-0.0688 0.736245,0.69167 2.0086,3.39321 2.571605,5.4602 0.226824,0.83274 0.470916,2.87673 0.542432,4.54221 0.120816,2.81343 0.01595,4.10438 -0.835508,10.28306 l -0.165172,1.19863 h 12.607836 12.607833 l 0.565423,-2.58653 c 2.890404,-13.2224 3.432093,-16.93926 3.227135,-22.14327 -0.302432,-7.67873 -2.443965,-12.8091 -7.490316,-17.94415 -6.759042,-6.87786 -15.678541,-10.43206 -24.062435,-9.58826 -6.104463,0.61438 -14.083364,3.5687 -19.214715,7.11458 -7.390173,5.10678 -13.658778,16.28137 -14.484194,25.81997 -0.356524,4.11996 0.08052,7.43414 1.481325,11.23334 0.85558,2.32045 0.948635,3.72566 0.38563,5.82322 -0.682647,2.54327 -2.406805,2.28383 14.687285,2.21 l 15.065797,-0.0651 z m -8.012127,-7.22474 c -5.408576,-3.60887 -6.187174,-4.26501 -6.925873,-5.83651 -0.493935,-1.0508 -0.521024,-1.47758 -0.449908,-7.08729 0.07215,-5.69141 0.103527,-6.02573 0.674157,-7.18473 0.388963,-0.79001 2.73001,-3.47686 6.687139,-7.6749 3.348767,-3.55264 6.388563,-6.68072 6.755115,-6.9513 0.904901,-0.66799 2.863652,-0.68787 3.96243,-0.0402 1.011446,0.59616 16.081367,20.58516 16.586475,22.00057 0.752232,2.10793 0.548284,2.91933 -2.055975,8.17951 -1.32885,2.68407 -2.663129,5.07632 -2.965054,5.31612 -1.246346,0.98988 -3.287411,0.16907 -3.596467,-1.44631 -0.117096,-0.61204 0.295859,-1.6462 2.145199,-5.37215 1.259615,-2.53781 2.29021,-4.72099 2.29021,-4.85153 0,-0.13053 -3.235046,-4.55342 -7.188996,-9.82864 l -7.189007,-9.59132 -1.974051,2.07887 c -5.506,5.79837 -9.086706,9.70548 -9.348215,10.2004 -0.191138,0.36173 -0.291252,2.23315 -0.291252,5.44452 0,4.75335 0.01624,4.90809 0.567776,5.40962 0.312282,0.28397 2.554996,1.85402 4.983818,3.48901 2.428816,1.63501 4.557974,3.1475 4.731465,3.3611 0.55098,0.67839 0.388083,2.26096 -0.303963,2.953 -1.178736,1.17874 -1.837263,0.94041 -7.095023,-2.56782 z M 37.250751,219.5784 c 0.89073,-0.15974 12.285729,-0.29521 30.197853,-0.35902 l 28.767312,-0.10247 3.105104,-3.84323 c 1.70781,-2.11377 3.3225,-4.13976 3.58822,-4.5022 l 0.4831,-0.65899 -2.95736,-0.28822 c -3.17123,-0.30907 -21.343261,-1.37275 -30.462925,-1.78313 -16.706364,-0.75177 -20.45315,-0.65367 -33.401284,0.87454 -4.075369,0.481 -7.454508,0.87454 -7.509207,0.87454 -0.123856,0 2.596233,5.46058 4.123624,8.27819 1.099772,2.02876 1.160037,2.09048 1.885553,1.93113 0.412211,-0.0905 1.393213,-0.28005 2.18001,-0.42114 z m 39.233246,-17.96712 -0.708019,-0.60858 -0.15618,-9.16978 c -0.09956,-5.84463 -0.300044,-10.34306 -0.552894,-12.40533 -0.420902,-3.43292 -0.392211,-3.75663 0.41215,-4.65023 0.862154,-0.9578 2.843308,-0.69432 3.461262,0.46033 0.520845,0.97322 1.238528,8.93507 1.408579,15.62666 0.201252,7.91925 0.05351,9.90638 -0.800137,10.76 -0.802548,0.80255 -2.122435,0.79692 -3.064761,-0.0131 z m -24.477449,-4.03754 -0.70802,-0.60862 -0.126173,-8.64024 -0.126173,-8.64023 -1.493858,-1.28654 c -3.453809,-2.97451 -3.477336,-3.00185 -3.477336,-4.04105 0,-1.27369 0.888235,-2.20417 2.137921,-2.23959 1.015231,-0.0288 2.826184,1.21533 5.249248,3.60618 2.226648,2.19705 2.252406,2.33919 2.252406,12.42927 v 8.55418 l -0.737626,0.73763 c -0.924486,0.92449 -1.991089,0.97081 -2.970389,0.12901 z m 11.494384,0.22595 c -0.774515,-0.42075 -1.226611,-1.52965 -1.222513,-2.99856 0.0014,-0.56915 -0.129907,-2.41797 -0.292217,-4.1085 -0.357562,-3.72411 -0.07039,-5.94344 1.058542,-8.17978 1.157376,-2.29275 1.575109,-4.20093 1.243542,-5.68045 -0.38631,-1.72378 -1.033628,-2.67696 -3.630913,-5.3466 -2.114709,-2.17361 -2.281719,-2.4203 -2.281719,-3.37035 0,-1.79481 1.691397,-2.73579 3.363394,-1.87117 1.016425,0.52561 4.816157,4.62788 5.763233,6.2221 2.095703,3.5277 2.018042,7.4593 -0.236409,11.96885 -0.911604,1.82346 -0.983306,2.7896 -0.555545,7.48539 0.350344,3.84582 0.348699,4.28942 -0.01853,4.9995 -0.621346,1.20154 -1.932792,1.56304 -3.190898,0.87957 z"
       id="path11384"
       inkscape:connector-curvature="0" />
  </g>
</svg>
