<?xml version="1.0" encoding="UTF-8" standalone="no"?>
<!-- Created with Inkscape (http://www.inkscape.org/) -->

<svg
   xmlns:dc="http://purl.org/dc/elements/1.1/"
   xmlns:cc="http://creativecommons.org/ns#"
   xmlns:rdf="http://www.w3.org/1999/02/22-rdf-syntax-ns#"
   xmlns:svg="http://www.w3.org/2000/svg"
   xmlns="http://www.w3.org/2000/svg"
   xmlns:sodipodi="http://sodipodi.sourceforge.net/DTD/sodipodi-0.dtd"
   xmlns:inkscape="http://www.inkscape.org/namespaces/inkscape"
   width="500"
   height="500"
   viewBox="0 0 132.29166 132.29167"
   version="1.1"
   id="svg10195"
   inkscape:version="0.92.2 5c3e80d, 2017-08-06"
   sodipodi:docname="book.svg">
  <defs
     id="defs10189" />
  <sodipodi:namedview
     id="base"
     pagecolor="#ffffff"
     bordercolor="#666666"
     borderopacity="1.0"
     inkscape:pageopacity="0.0"
     inkscape:pageshadow="2"
     inkscape:zoom="0.35"
     inkscape:cx="-125.71429"
     inkscape:cy="560"
     inkscape:document-units="mm"
     inkscape:current-layer="layer1"
     showgrid="false"
     units="px"
     inkscape:window-width="1920"
     inkscape:window-height="1035"
     inkscape:window-x="0"
     inkscape:window-y="1"
     inkscape:window-maximized="1" />
  <metadata
     id="metadata10192">
    <rdf:RDF>
      <cc:Work
         rdf:about="">
        <dc:format>image/svg+xml</dc:format>
        <dc:type
           rdf:resource="http://purl.org/dc/dcmitype/StillImage" />
        <dc:title></dc:title>
      </cc:Work>
    </rdf:RDF>
  </metadata>
  <g
     inkscape:label="Layer 1"
     inkscape:groupmode="layer"
     id="layer1"
     transform="translate(0,-164.70832)">
    <path
       id="path10984"
       style="fill:#ffffff;stroke-width:0.27441558;fill-opacity:1"
       d="m 52.310193,167.15385 c -8.54608,0.003 -14.691377,0.19091 -16.711879,0.55353 -6.908931,1.23996 -11.276568,2.96278 -14.257296,5.62333 -2.359962,2.10648 -3.150357,3.46778 -4.447382,7.66057 -4.160429,13.44908 -5.265363,23.69815 -3.953512,36.67182 1.434615,14.18778 2.052002,25.66152 2.060334,38.28033 0.0032,4.81692 0.125482,9.50708 0.271418,10.42248 0.584016,3.66345 3.343205,6.79396 7.624209,8.65011 3.472111,1.50545 5.515172,1.78593 14.431203,1.98061 4.279208,0.0934 12.189413,0.43612 17.578055,0.76139 15.398766,0.92951 16.124763,0.889 16.826273,-0.93595 0.501506,-1.30462 0.388729,-1.7877 -0.634436,-2.71558 -1.284217,-1.16461 -2.373468,-1.38255 -8.425377,-1.68508 -2.845074,-0.14222 -8.609484,-0.50473 -12.809444,-0.80579 -4.199973,-0.30108 -10.618796,-0.58756 -14.264045,-0.6366 -3.64526,-0.049 -7.016622,-0.17389 -7.492087,-0.27714 -1.675859,-0.36395 -4.818215,-2.03195 -5.368013,-2.84957 -0.600254,-0.89266 -0.699967,-2.61588 -0.238495,-4.12275 0.671597,-2.19296 2.467957,-3.24816 7.870301,-4.62383 3.473206,-0.88442 6.022413,-1.19038 14.305413,-1.71685 19.652335,-1.24913 35.878383,-1.23237 49.564097,0.0517 3.412767,0.32021 7.202,0.44219 13.42615,0.43219 7.9303,-0.0127 8.7672,-0.0567 9.78965,-0.51258 2.00664,-0.89475 2.11093,-1.27795 2.41618,-8.8863 0.17839,-4.44616 0.16867,-9.41405 -0.0278,-14.47786 -0.16456,-4.24002 -0.39522,-19.93908 -0.51244,-34.88684 -0.16251,-20.721 -0.29932,-27.42111 -0.57661,-28.20237 -0.4761,-1.34138 -1.67298,-2.39909 -3.07341,-2.71558 -0.62775,-0.14186 -5.97227,-0.25818 -12.07623,-0.26336 -6.022598,-0.005 -18.536343,-0.20423 -27.807969,-0.44291 -8.740584,-0.225 -16.839847,-0.33371 -23.486795,-0.33112 z m -1.838726,5.28302 c 0.493866,-0.002 0.995872,-0.002 1.506523,0 3.713811,0.0157 7.877441,0.14675 12.580236,0.38969 2.615076,0.13508 11.044109,0.31677 18.730848,0.40386 7.686738,0.0871 16.828696,0.27808 20.315456,0.42452 6.77677,0.28461 8.01925,0.53358 8.66726,1.73561 0.21446,0.39784 0.37614,7.03251 0.50652,20.77529 0.10538,11.10494 0.33285,27.72459 0.50528,36.9325 0.22747,12.12514 0.22698,17.03468 -0.002,17.80438 -0.53231,1.79271 -0.74947,1.81581 -10.78077,1.15644 -18.967233,-1.24673 -33.194388,-1.58196 -46.731301,-1.10094 -15.55738,0.55283 -21.920751,1.22907 -28.443247,3.02221 h -4.32e-4 c -4.284883,1.178 -4.749252,1.18117 -5.27599,0.0379 -0.558957,-1.21317 -1.003188,-6.61182 -1.010541,-12.28595 -0.0089,-6.60996 -0.457111,-14.39335 -1.129574,-19.62652 -1.300275,-10.11916 -1.341116,-17.01495 -0.144726,-24.38621 1.016932,-6.26557 2.765922,-14.77008 3.307256,-16.08217 1.604641,-3.88933 4.905911,-6.4007 9.980864,-7.59282 4.464193,-1.04864 10.010099,-1.57459 17.418076,-1.60776 z m -19.430288,6.95049 c -2.475641,-0.0187 -3.01659,0.89164 -3.378171,5.68801 -0.553335,7.33988 -0.64219,15.14526 -0.302655,26.57739 0.533184,17.95193 0.791313,22.51412 1.617537,28.60431 0.895019,6.59731 1.181359,7.29635 3.216079,7.84356 0.445978,0.11993 1.005391,0.17988 1.243125,0.13321 2.443132,-0.47935 2.751427,-1.19291 2.16122,-5.00586 -1.541302,-9.95723 -1.866696,-17.14228 -1.869963,-41.29258 -0.0017,-13.49788 -0.104387,-20.67391 -0.302234,-21.14585 -0.415401,-0.99082 -1.098238,-1.39249 -2.384938,-1.40219 z m 85.903401,82.69885 c -1.09518,-0.0293 -2.21229,0.52031 -2.72475,1.62613 -0.34187,0.73771 -0.4542,1.83621 -0.44195,4.31913 0.0153,3.12094 -0.0228,3.35463 -0.60405,3.72387 -0.34111,0.21667 -1.1165,0.3939 -1.72306,0.3939 -2.33418,0 -3.73319,1.45191 -3.20806,3.32883 0.33517,1.19797 1.40586,1.90673 3.4951,2.31364 5.40076,1.05187 7.73326,-0.48243 8.44227,-5.55366 0.34926,-2.49819 -0.10914,-7.37485 -0.81849,-8.70754 -0.50142,-0.94205 -1.45069,-1.41844 -2.41701,-1.4443 z m -21.308282,1.22151 c -8.407987,10e-4 -17.056921,0.6919 -18.531182,1.51819 -1.748549,0.98 -2.001757,2.09798 -1.795669,7.92395 0.272081,7.6917 1.641564,19.11253 2.440236,20.35038 0.646838,1.00253 1.549264,1.35463 3.072562,1.19893 2.342595,-0.23945 5.204487,-2.13294 8.844957,-5.85186 2.007594,-2.05084 3.526766,-1.77294 5.685444,1.04007 1.42435,1.85607 3.977784,4.2848 5.082234,4.8336 0.77508,0.38512 2.43142,0.36899 3.30557,-0.0321 0.39147,-0.17964 0.99231,-0.70448 1.33556,-1.1664 0.60588,-0.81531 0.62817,-1.12824 0.76445,-10.71034 0.0772,-5.42886 0.30811,-11.34324 0.51287,-13.14266 0.41712,-3.66548 0.26603,-4.30539 -1.2562,-5.32819 -0.76335,-0.51289 -1.23724,-0.55115 -7.78461,-0.62434 -0.556197,-0.006 -1.115685,-0.009 -1.676222,-0.009 z m -6.28948,5.92612 c 0.731417,-0.003 1.541993,-3.9e-4 2.443191,0.005 3.645255,0.0233 6.835238,0.10174 7.088547,0.17456 1.048564,0.30141 1.152344,1.24485 0.698172,6.34911 -0.238795,2.68378 -0.512034,5.54937 -0.607002,6.36825 l -0.172637,1.48909 -1.83409,-1.411 c -4.371303,-3.36293 -5.94962,-3.12516 -11.21765,1.68968 -1.264196,1.15545 -2.450611,2.1008 -2.63694,2.1008 -0.607884,0 -0.971869,-1.59537 -0.97677,-4.28582 -0.0029,-1.45177 -0.133998,-3.69777 -0.29168,-4.99132 -0.71341,-5.85225 -0.718144,-5.50607 0.08021,-6.23006 1.07884,-0.97837 2.306739,-1.23944 7.426657,-1.25865 z"
       inkscape:connector-curvature="0" />
  </g>
</svg>
