<?xml version="1.0" encoding="UTF-8" standalone="no"?>
<!-- Created with Inkscape (http://www.inkscape.org/) -->

<svg
   xmlns:dc="http://purl.org/dc/elements/1.1/"
   xmlns:cc="http://creativecommons.org/ns#"
   xmlns:rdf="http://www.w3.org/1999/02/22-rdf-syntax-ns#"
   xmlns:svg="http://www.w3.org/2000/svg"
   xmlns="http://www.w3.org/2000/svg"
   xmlns:sodipodi="http://sodipodi.sourceforge.net/DTD/sodipodi-0.dtd"
   xmlns:inkscape="http://www.inkscape.org/namespaces/inkscape"
   width="500"
   height="500"
   viewBox="0 0 132.29166 132.29167"
   version="1.1"
   id="svg10195"
   inkscape:version="0.92.2 5c3e80d, 2017-08-06"
   sodipodi:docname="candles.svg">
  <defs
     id="defs10189" />
  <sodipodi:namedview
     id="base"
     pagecolor="#ffffff"
     bordercolor="#666666"
     borderopacity="1.0"
     inkscape:pageopacity="0.0"
     inkscape:pageshadow="2"
     inkscape:zoom="0.35"
     inkscape:cx="-125.71429"
     inkscape:cy="560"
     inkscape:document-units="mm"
     inkscape:current-layer="layer1"
     showgrid="false"
     units="px"
     inkscape:window-width="1920"
     inkscape:window-height="1035"
     inkscape:window-x="0"
     inkscape:window-y="1"
     inkscape:window-maximized="1" />
  <metadata
     id="metadata10192">
    <rdf:RDF>
      <cc:Work
         rdf:about="">
        <dc:format>image/svg+xml</dc:format>
        <dc:type
           rdf:resource="http://purl.org/dc/dcmitype/StillImage" />
        <dc:title></dc:title>
      </cc:Work>
    </rdf:RDF>
  </metadata>
  <g
     inkscape:label="Layer 1"
     inkscape:groupmode="layer"
     id="layer1"
     transform="translate(0,-164.70832)">
    <path
       style="fill:#ffffff;stroke-width:0.25561818;fill-opacity:1"
       d="m 27.420988,291.92994 c -3.864813,-0.0988 -7.536811,-0.30165 -8.159995,-0.45087 -7.822198,-1.87303 -8.954395,-2.3929 -9.9258605,-4.55753 -0.5789995,-1.29014 -0.6060323,-1.5902 -0.6083728,-6.75263 l -0.00213,-5.40247 H 6.3280202 c -1.6048936,0 -2.6295213,-0.12496 -3.1016773,-0.37827 -1.3531187,-0.72592 -1.6184597,-2.88999 -0.485025,-3.95577 0.4273314,-0.40183 1.0228422,-0.49742 3.5572579,-0.5709 3.2343157,-0.0938 4.4390602,0.12878 5.5341082,1.02241 1.417713,1.15693 1.524037,1.68017 1.660225,8.16997 l 0.125482,5.9798 3.387578,0.85553 c 1.86317,0.47054 4.573562,0.97221 6.023095,1.1148 3.166158,0.3115 71.911098,0.32311 78.802546,0.0133 4.39228,-0.19745 4.89333,-0.27561 9.2856,-1.44855 2.55355,-0.6819 4.77746,-1.3498 4.94205,-1.4842 0.2087,-0.17043 0.32261,-1.80047 0.37644,-5.38708 0.0742,-4.94199 0.10081,-5.17842 0.68197,-6.05744 1.06444,-1.60995 1.92538,-2.00828 6.41563,-2.96839 2.29835,-0.49143 4.46277,-0.89352 4.80983,-0.89352 0.84099,0 2.09817,1.32177 2.09817,2.20597 0,1.11212 -0.66554,2.15133 -1.56415,2.44236 -0.45099,0.14606 -2.35568,0.58927 -4.23263,0.9849 l -3.41264,0.71935 -0.16335,5.06001 c -0.24927,7.72161 -0.35406,7.84159 -8.82199,10.10012 l -5.52117,1.47258 -9.160119,0.20273 c -10.968245,0.24277 -60.221148,0.21733 -70.143943,-0.0362 z m 2.760587,-8.9569 c -5.291795,-1.20857 -8.418541,-4.12613 -9.836702,-9.17858 -0.377997,-1.34668 -0.431394,-4.01083 -0.518048,-25.84516 -0.05314,-13.38904 -0.02433,-24.8466 0.06403,-25.46123 0.176681,-1.22895 1.239539,-2.69388 2.410179,-3.32191 0.597873,-0.32076 3.903498,-0.37724 22.074628,-0.37724 H 65.747117 L 65.61186,218.2031 c -0.654947,-2.83671 -3.89499,-22.39864 -3.770361,-22.76378 0.08886,-0.26037 0.390289,-0.737 0.669844,-1.05921 0.995539,-1.1474 3.343442,-0.58691 3.780306,0.90246 0.07492,0.25544 0.932923,5.03377 1.906658,10.6185 0.973742,5.58474 1.889193,10.76916 2.034352,11.52096 l 0.263918,1.36689 17.737781,0.006 c 16.666322,0.005 17.799062,0.0346 18.752012,0.48367 2.02201,0.95286 2.59329,2.15103 3.73253,7.82829 1.61613,8.05373 1.90374,13.11962 1.90374,33.53259 0,16.6676 -0.0173,17.30749 -0.49413,18.27714 -0.27177,0.55266 -0.92113,1.28025 -1.44302,1.61688 l -0.94891,0.61205 -13.802923,0.0425 c -14.408984,0.0444 -17.50719,0.14434 -43.416469,1.40104 -17.418814,0.84488 -20.115555,0.89128 -22.335636,0.38424 z m 21.206307,-5.20835 c 25.320241,-1.24284 31.22795,-1.43609 43.911873,-1.43647 l 12.680115,-2.5e-4 -0.006,-16.59763 c -0.006,-16.47485 -0.0742,-18.65588 -0.76503,-24.66889 -0.56788,-4.94295 -1.65935,-10.5931 -2.17528,-11.26059 -0.19935,-0.25792 -8.569648,-0.32545 -40.334697,-0.32545 H 24.615305 l -0.131891,15.42635 c -0.168984,19.76415 0.06104,32.69212 0.609383,34.24655 0.577377,1.63677 1.392693,2.74686 2.68656,3.65786 2.604459,1.83377 4.340825,1.90428 23.608745,0.95852 z m 24.006121,-66.56074 c -0.254485,-0.15347 -0.623035,-0.67713 -0.818994,-1.1637 -0.307811,-0.76427 -0.307761,-0.99984 4.98e-4,-1.73084 0.196173,-0.4654 2.349241,-3.23195 4.784596,-6.14789 2.435355,-2.91592 4.393852,-5.44111 4.352228,-5.6115 -0.09582,-0.39221 -17.080152,-21.72205 -17.314946,-21.74503 -0.247734,-0.0242 -10.812842,11.85589 -12.046675,13.5461 -3.863646,5.29276 -3.58491,9.57263 1.08516,16.66227 1.725616,2.61965 1.898078,3.63052 0.811673,4.75762 -0.725823,0.753 -2.156177,0.929 -2.866072,0.35267 -1.39376,-1.13155 -4.746978,-7.00549 -5.680377,-9.95051 -0.940954,-2.96886 -0.947606,-6.49657 -0.01736,-9.19974 0.766508,-2.22733 1.8278,-4.1259 3.57877,-6.40217 2.508365,-3.26085 15.757387,-17.86332 16.34693,-18.01682 1.276402,-0.33236 2.679482,0.53158 2.99738,1.84561 0.103486,0.42778 -0.02696,1.02415 -0.376111,1.71903 l -0.534581,1.06402 9.070595,11.24052 c 4.988829,6.1823 9.226538,11.61755 9.41714,12.07834 0.460034,1.1122 0.440428,3.29565 -0.0382,4.2559 -0.380393,0.76315 -9.401795,11.79455 -10.146569,12.40726 -0.476467,0.39198 -1.982172,0.41445 -2.604964,0.0389 z"
       id="path11486"
       inkscape:connector-curvature="0" />
  </g>
</svg>
