<?xml version="1.0" encoding="UTF-8" standalone="no"?>
<!-- Created with Inkscape (http://www.inkscape.org/) -->

<svg
   xmlns:dc="http://purl.org/dc/elements/1.1/"
   xmlns:cc="http://creativecommons.org/ns#"
   xmlns:rdf="http://www.w3.org/1999/02/22-rdf-syntax-ns#"
   xmlns:svg="http://www.w3.org/2000/svg"
   xmlns="http://www.w3.org/2000/svg"
   xmlns:sodipodi="http://sodipodi.sourceforge.net/DTD/sodipodi-0.dtd"
   xmlns:inkscape="http://www.inkscape.org/namespaces/inkscape"
   width="500"
   height="500"
   viewBox="0 0 132.29166 132.29167"
   version="1.1"
   id="svg10195"
   inkscape:version="0.92.2 5c3e80d, 2017-08-06"
   sodipodi:docname="jewelery.svg">
  <defs
     id="defs10189" />
  <sodipodi:namedview
     id="base"
     pagecolor="#ffffff"
     bordercolor="#666666"
     borderopacity="1.0"
     inkscape:pageopacity="0.0"
     inkscape:pageshadow="2"
     inkscape:zoom="0.35"
     inkscape:cx="-125.71429"
     inkscape:cy="560"
     inkscape:document-units="mm"
     inkscape:current-layer="layer1"
     showgrid="false"
     units="px"
     inkscape:window-width="1920"
     inkscape:window-height="1035"
     inkscape:window-x="0"
     inkscape:window-y="1"
     inkscape:window-maximized="1" />
  <metadata
     id="metadata10192">
    <rdf:RDF>
      <cc:Work
         rdf:about="">
        <dc:format>image/svg+xml</dc:format>
        <dc:type
           rdf:resource="http://purl.org/dc/dcmitype/StillImage" />
        <dc:title></dc:title>
      </cc:Work>
    </rdf:RDF>
  </metadata>
  <g
     inkscape:label="Layer 1"
     inkscape:groupmode="layer"
     id="layer1"
     transform="translate(0,-164.70832)">
    <path
       style="fill:#ffffff;stroke-width:0.26601422;fill-opacity:1"
       d="m 62.589732,293.70147 c -1.398521,-0.30736 -3.077282,-1.55812 -3.846278,-2.8657 -0.38389,-0.65275 -2.394627,-4.31087 -4.468304,-8.12917 -4.466058,-8.22343 -8.194213,-14.72562 -10.452264,-18.22959 -4.291458,-6.65933 -12.158131,-17.83653 -29.989029,-42.60933 L 2.0536235,205.50119 1.9721951,203.10265 c -0.1013963,-2.9866 0.4703299,-7.33647 1.3537374,-10.29961 1.5269939,-5.12189 3.6725877,-8.97508 9.6388835,-17.31014 3.060172,-4.27513 4.300905,-5.79053 5.412795,-6.61104 2.778518,-2.05039 -0.831529,-1.91271 48.010474,-1.83095 l 43.999785,0.0737 1.43326,0.79187 c 2.55549,1.41189 3.30259,2.48829 10.45076,15.05709 3.7218,6.54413 7.0266,12.44877 7.344,13.12141 0.47073,0.9976 0.57763,1.66505 0.58009,3.62154 0.004,3.03769 -0.21441,3.54159 -4.09365,9.45306 -1.62952,2.48319 -8.81359,13.46708 -15.96458,24.40865 -21.188041,32.41933 -33.468303,50.76104 -35.156669,52.50972 -0.836924,0.86683 -3.398334,2.99377 -5.692013,4.72653 -4.384146,3.312 -4.512974,3.36752 -6.699336,2.88703 z m 8.175888,-11.21485 c 1.172776,-1.06077 3.43205,-4.25498 10.243359,-14.48235 11.969932,-17.97317 42.849771,-65.21655 42.721811,-65.36053 -0.16525,-0.18596 -33.457079,1.40536 -33.62317,1.60715 -0.05502,0.0669 -4.912318,17.89898 -10.793972,39.62691 -5.881647,21.72794 -10.757791,39.73845 -10.835871,40.02337 -0.188021,0.68609 0.29681,0.38632 2.287843,-1.41455 z m 3.649756,-40.53231 c 5.537202,-20.45786 10.000588,-37.27156 9.918633,-37.36378 -0.08195,-0.0922 -4.522549,0.0437 -9.867984,0.30206 -5.345437,0.25836 -12.991574,0.61231 -16.991411,0.78656 -3.999844,0.17425 -7.315689,0.35998 -7.368548,0.41273 -0.309272,0.30861 1.713814,16.55689 3.245236,26.06398 2.449683,15.20761 6.122563,32.33136 9.686468,45.16039 0.762875,2.74613 0.932883,3.13661 1.10572,2.53963 0.112329,-0.388 4.734676,-17.44371 10.271886,-37.90157 z m -18.092694,30.42377 c -4.917451,-19.22847 -9.330323,-43.91176 -11.149066,-62.36199 -0.29558,-2.99852 -0.537306,-4.38643 -0.829013,-4.75988 -0.394176,-0.50464 -0.910164,-0.52088 -12.072749,-0.37984 -11.351423,0.14341 -22.4942757,0.65128 -22.892077,1.04337 -0.108384,0.10683 5.2312,7.73873 11.865749,16.95979 22.876857,31.7955 28.160768,39.656 34.460233,51.26403 0.948074,1.74701 1.750757,3.1438 1.783741,3.10399 0.03298,-0.0398 -0.492082,-2.23108 -1.166818,-4.86947 z m 0.852371,-72.51973 c 4.578373,-0.21224 11.822614,-0.54081 16.098307,-0.73015 4.275691,-0.18935 7.906047,-0.42016 8.067453,-0.5129 0.190893,-0.1097 -1.803146,-4.49028 -5.705105,-12.53319 -3.299212,-6.80051 -5.99857,-12.54642 -5.99857,-12.7687 0,-0.33333 -0.680899,-0.40412 -3.886996,-0.40412 -3.310521,0 -3.886988,0.0636 -3.886988,0.42888 0,0.23589 -3.116529,6.35933 -6.925622,13.60766 -3.809094,7.24832 -6.985953,13.35568 -7.05969,13.57189 -0.109827,0.32205 -0.03398,0.33287 0.419412,0.0598 0.351048,-0.21141 3.598033,-0.47446 8.877799,-0.7192 z m -41.955811,-0.29284 c 3.379175,-0.23128 10.968215,-0.50207 16.864534,-0.60176 5.947258,-0.10054 10.720576,-0.29268 10.720576,-0.43151 0,-0.13765 -0.19749,-0.49536 -0.438853,-0.79493 -0.241371,-0.29956 -2.742001,-6.00841 -5.556957,-12.68634 l -5.118096,-12.14168 h -4.498793 c -3.63497,0 -4.663832,0.0881 -5.35835,0.45897 -0.933864,0.49865 -2.162732,2.01354 -6.044091,7.45086 -5.424354,7.59888 -7.577355,12.21087 -8.4595188,18.12136 l -0.1579377,1.05818 0.9517636,-0.006 c 0.5234734,-0.003 3.7165469,-0.19555 7.0957229,-0.42683 z m 101.938098,-2.54742 c 3.03359,-0.11501 5.76454,-0.28507 6.06877,-0.3779 0.50949,-0.15547 0.0477,-1.05474 -5.84986,-11.39168 -7.47919,-13.10915 -6.7934,-12.33922 -10.99077,-12.33922 -2.14,0 -2.64311,0.0778 -2.64311,0.40857 0,0.22472 -2.53909,5.8764 -5.642412,12.55929 -3.103329,6.6829 -5.642409,12.18151 -5.642409,12.21914 0,0.0376 4.316437,-0.14253 9.592091,-0.40035 5.27565,-0.25781 12.07412,-0.56284 15.1077,-0.67785 z M 92.434176,172.97463 c -3.159436,-0.0417 -8.324925,-0.0417 -11.478873,0 l -5.73445,0.0757 5.620749,11.56941 c 3.091407,6.36318 5.738125,11.80388 5.881597,12.09045 0.217329,0.43409 1.194797,-1.49635 5.858124,-11.56942 L 98.1786,173.05038 Z m -41.501507,10.15135 c 2.714853,-5.1672 4.999149,-9.5798 5.07622,-9.80579 0.12113,-0.3552 -1.121359,-0.4109 -9.165326,-0.4109 -5.118004,0 -9.305464,0.0533 -9.305464,0.1185 0,0.1203 7.619296,18.21347 8.070454,19.16451 0.13514,0.2849 0.277738,0.47537 0.31687,0.42328 0.0391,-0.0521 2.292393,-4.32241 5.007246,-9.4896 z"
       id="path11180"
       inkscape:connector-curvature="0" />
  </g>
</svg>
