<?xml version="1.0" encoding="UTF-8" standalone="no"?>
<!-- Created with Inkscape (http://www.inkscape.org/) -->

<svg
   xmlns:dc="http://purl.org/dc/elements/1.1/"
   xmlns:cc="http://creativecommons.org/ns#"
   xmlns:rdf="http://www.w3.org/1999/02/22-rdf-syntax-ns#"
   xmlns:svg="http://www.w3.org/2000/svg"
   xmlns="http://www.w3.org/2000/svg"
   xmlns:sodipodi="http://sodipodi.sourceforge.net/DTD/sodipodi-0.dtd"
   xmlns:inkscape="http://www.inkscape.org/namespaces/inkscape"
   width="1800"
   height="1600"
   viewBox="0 0 476.24999 423.33334"
   version="1.1"
   id="svg1060"
   inkscape:version="0.92.2 5c3e80d, 2017-08-06"
   sodipodi:docname="lotus-bg.svg">
  <defs
     id="defs1054" />
  <sodipodi:namedview
     id="base"
     pagecolor="#ffffff"
     bordercolor="#666666"
     borderopacity="1.0"
     inkscape:pageopacity="0.0"
     inkscape:pageshadow="2"
     inkscape:zoom="0.35"
     inkscape:cx="651.42856"
     inkscape:cy="560"
     inkscape:document-units="mm"
     inkscape:current-layer="layer1"
     showgrid="false"
     units="px"
     inkscape:window-width="1920"
     inkscape:window-height="1035"
     inkscape:window-x="0"
     inkscape:window-y="1"
     inkscape:window-maximized="1" />
  <metadata
     id="metadata1057">
    <rdf:RDF>
      <cc:Work
         rdf:about="">
        <dc:format>image/svg+xml</dc:format>
        <dc:type
           rdf:resource="http://purl.org/dc/dcmitype/StillImage" />
        <dc:title />
      </cc:Work>
    </rdf:RDF>
  </metadata>
  <g
     inkscape:label="Layer 1"
     inkscape:groupmode="layer"
     id="layer1"
     transform="translate(0,126.33335)">
    <path
       style="fill:#200023;fill-opacity:0.08627451;stroke-width:0.66879386"
       d="M 32.22617,4.74647 C 19.776307,8.22735 5.5378687,7.08416 -9.0679713,1.43103 l -7.9308907,-3.06963 2.824281,-1.88335 c 6.3719467,-4.24906 10.2898277,-7.77089 17.5363427,-15.76354 8.2793203,-9.1318 11.6207213,-11.66354 15.0847623,-11.42945 l 2.159199,0.14593 -2.595439,3.1472 C 14.722419,-23.435 9.0811457,-14.79545 6.2800717,-9.45708 l -2.158545,4.1138 4.328172,1.47449 C 26.40894,2.24934 56.130776,-6.62909 68.891426,-21.92382 c 3.3345,-3.99668 4.77802,-4.46934 2.23542,-0.73199 -3.36145,4.94108 -9.43917,11.47086 -13.76392,14.7877 C 52.206456,-3.91339 38.37717,3.02664 32.226149,4.74642 Z m 84.54229,-37.85272 c -7.22671,2.06028 -19.201074,2.37277 -24.928544,0.65049 l -2.94892,-0.88677 4.4479,0.14209 c 8.157574,0.26058 12.826734,-0.91513 24.669864,-6.21196 9.77137,-4.37018 11.09211,-5.12797 15.45964,-8.86775 6.77979,-5.80551 11.41535,-11.48275 13.61752,-16.67761 l 1.90286,-4.48876 -4.31703,-1.50343 c -5.35115,-1.86354 -13.56049,-3.23235 -19.77946,-3.29794 -4.94673,-0.0521 -5.5626,-0.35868 -4.5992,-2.288977 1.1638,-2.33179 9.73499,-3.67607 21.86629,-3.42945 8.50936,0.17297 15.02673,-0.4875 19.68293,-1.9947 2.23968,-0.72503 4.17224,-1.09108 4.29454,-0.81358 0.12232,0.27749 -0.32259,2.48377 -0.98872,4.90285 -3.58013,13.001627 -15.34855,27.447017 -29.4645,36.166777 -4.24589,2.62278 -14.82885,7.43375 -18.91515,8.59876 z m -55.887924,5.36367 c -22.72435,6.2782 -46.993724,-2.54244 -64.9071943,-23.59038 -5.590117,-6.56823 -15.2460767,-21.46325 -15.0104247,-23.15466 0.16851,-1.209557 6.771254,-3.494667 13.2459457,-4.584227 11.407969,-1.91973 25.8366663,-1.28562 34.2371913,1.50466 4.763711,1.58228 7.143514,3.718247 9.107688,8.174507 1.319579,2.99382 0.515491,3.68351 -2.692012,2.30899 -3.719769,-1.59405 -17.787562,-3.75248 -23.665364,-3.63097 -5.5454573,0.11463 -14.9362203,1.58603 -15.2479683,2.38915 -0.28324,0.72978 7.407201,11.37662 11.33399,15.691 13.8233443,15.18787 33.0395543,23.69515 52.1285483,23.07811 2.62312,-0.0848 5.42007,-0.17011 6.21544,-0.18959 l 1.44615,-0.0354 -1.23867,0.50618 c -0.68133,0.27819 -2.91026,0.96809 -4.95337,1.53255 z m 29.4629,-13.08294 c 0.66953,-0.76101 2.79433,-3.17542 4.72178,-5.36533 5.464934,-6.20906 9.598414,-13.27987 12.650714,-21.64042 3.17197,-8.688407 4.23919,-14.043837 4.6542,-23.355407 0.2863,-6.42364 -0.88878,-20.256783 -2.11953,-24.950743 l -0.64415,-2.45684 -2.67507,1.19013 c -8.480534,3.77221 -16.712224,13.07607 -23.316634,26.353633 -1.27769,2.56871 -2.5039,4.75008 -2.72493,4.8475 -0.22112,0.0975 -1.13925,-1.78963 -2.04056,-4.19337 -1.18662,-3.16472 -1.49505,-4.99444 -1.11821,-6.63206 0.62996,-2.73764 8.85756,-16.855603 11.59465,-19.895573 4.70063,-5.22079 11.967504,-10.72313 19.882704,-15.05479 l 4.87733,-2.66918 0.74278,2.5099 c 0.40847,1.38044 1.36333,4.37415 2.1218,6.65273 7.33466,22.03494 6.24291,43.982123 -3.01109,60.53011 -5.11371,9.14431 -12.86896,17.31123 -23.129954,24.35775 -1.64934,1.13265 -1.6587,1.12807 -0.46583,-0.22779 z m -9.98495,-5.31072 c -0.0519,-0.78107 -0.23342,-4.28945 -0.40331,-7.79638 -0.54636,-11.27831 -1.86135,-16.96527 -6.22516,-26.922187 -4.33099,-9.88248 -7.94863,-15.51284 -15.10265,-23.506503 -5.04647,-5.6388 -16.712562,-15.82448 -17.650786,-15.41094 -1.962284,0.86492 -3.056979,14.4081 -1.881354,23.275723 1.392427,10.50273 3.722953,17.91499 9.34231,29.713297 5.53802,11.62758 10.38795,18.62031 16.2432,23.41968 3.63448,2.97911 3.43179,3.33524 -0.5059,0.88885 -25.243382,-15.68319 -38.828763,-46.025167 -34.095116,-76.14894 0.795057,-5.05965 4.085944,-15.68764 4.979508,-16.08149 1.267271,-0.55858 17.589968,11.04301 23.843788,16.94736 8.36517,7.89764 11.37056,12.32903 16.9561,25.001363 4.37402,9.92365 5.10835,12.06973 5.94732,17.37921 1.1565,7.319667 1.3206,14.692777 0.47738,21.449007 -0.72937,5.84404 -1.77383,10.07101 -1.92533,7.79195 z m -86.7580743,27.82508 c -5.3056447,-2.52182 -9.3684197,-6.10914 -11.7105277,-10.34008 -1.641358,-2.96503 -1.875934,-3.87252 -1.388269,-5.3712 1.454362,-4.46995 7.934103,-11.43011 12.5249247,-13.4536 2.231679,-0.98365 2.546468,-0.91549 4.469626,0.96822 3.50237801,3.43055 3.45461101,3.57868 -1.917632,5.94658 -4.471676,1.97097 -10.1754857,6.02595 -10.8880597,7.74061 -0.504865,1.21485 5.032901,4.77684 11.8692747,7.63451 3.46958601,1.45033 6.244138,2.80237 6.165696,3.00454 -0.152163,0.39201 -4.778006,5.42606 -5.127683,5.58018 -0.114264,0.0504 -1.913015,-0.71906 -3.99735,-1.70976 z M 142.23621,-81.864757 c -1.55591,-0.10998 -2.89797,-0.35663 -2.98237,-0.54811 -0.0844,-0.19152 0.60682,-2.63923 1.53604,-5.43953 1.89543,-5.71215 2.8065,-14.070933 1.58533,-14.544943 -1.36023,-0.52795 -7.66837,1.24387 -13.36004,3.752573 -3.01142,1.32734 -5.46968,2.16417 -5.46281,1.85966 0.007,-0.30454 -0.0921,-2.27023 -0.22,-4.368243 l -0.23249,-3.81457 3.83858,-1.34176 c 6.59802,-2.30638 17.97497,-1.39202 19.27398,1.54899 2.39689,5.425803 2.2395,21.702853 -0.2192,22.714193 -0.50999,0.21095 -2.20108,0.29176 -3.75702,0.18174 z m -131.031516,-0.87842 c -1.8360613,-0.0616 -3.4713353,-0.1305 -3.6339553,-0.15311 -0.875411,-0.12176 -3.628979,-8.51535 -3.916424,-11.93844 -0.458145,-5.455353 0.210422,-11.503963 1.324457,-11.982843 2.319,-0.99726 9.9840763,-1.98868 12.7823683,-1.65393 1.703161,0.20373 4.58173,0.97624 6.39682,1.71663 l 3.300128,1.34621 -0.06761,3.4443 -0.06761,3.444313 -6.297555,-2.260053 c -5.362486,-1.92447 -11.9017713,-3.49064 -12.8427923,-3.07587 -0.99654,0.43924 0.627518,6.405673 3.5968633,13.214223 1.875296,4.29835 3.263402,7.85952 3.086087,7.91311 -0.177574,0.0534 -1.824711,0.0471 -3.660814,-0.0146 z M 83.038846,-118.7 c -2.23198,-4.99816 -6.47391,-11.99655 -7.99099,-13.18435 -1.12244,-0.8788 -1.26544,-0.83146 -2.64013,0.87408 -1.94069,2.40779 -4.39619,8.1507 -5.57187,13.03157 -0.52635,2.18516 -1.22097,3.93624 -1.54359,3.89129 -0.32257,-0.0448 -1.67011,-1.27833 -2.99441,-2.74088 -2.03995,-2.25294 -2.38608,-2.94365 -2.26546,-4.52126 0.31621,-4.13917 5.93458,-11.57278 11.34582,-15.01152 2.3494,-1.49302 2.41178,-1.4861 5.13709,0.56849 4.80254,3.6206 9.15899,8.29364 11.39368,12.22168 l 2.1631,3.80216 -2.02777,1.81371 c -1.1153,0.99756 -2.30913,2.10822 -2.65296,2.46814 -0.46073,0.48229 -1.07945,-0.36279 -2.35243,-3.21315 z"
       id="path1686"
       inkscape:connector-curvature="0" />
    <rect
       style="opacity:1;fill:#200023;fill-opacity:0.12156863;stroke:#ffffff;stroke-width:1.39736712;stroke-linecap:round;stroke-miterlimit:4;stroke-dasharray:none;stroke-opacity:1;paint-order:stroke markers fill"
       id="rect1707"
       width="486.07736"
       height="431.77176"
       x="-3.0238097"
       y="-128.72414" />
    <path
       inkscape:connector-curvature="0"
       id="path2949"
       d="m 365.91676,130.13353 c 9.09269,-9.18905 22.02902,-15.24639 37.51776,-17.56747 l 8.4103,-1.26032 -1.52112,3.03475 c -3.43186,6.8468 -5.09176,11.84658 -7.4297,22.37883 -2.67115,12.03337 -4.32047,15.88751 -7.44593,17.39945 l -1.94815,0.9424 0.69647,-4.01946 c 0.8823,-5.09179 1.50529,-15.39119 1.29541,-21.41615 l -0.16174,-4.6429 -4.49041,0.86218 c -18.63241,3.57762 -40.05812,26.00869 -43.57088,45.61541 -0.91792,5.12345 -1.93799,6.24889 -1.57965,1.74288 0.4737,-5.95729 2.52058,-14.63985 4.63546,-19.66301 2.52162,-5.9892 11.09986,-18.86659 15.59222,-23.40656 z m -54.7059,74.74952 c 5.25831,-5.36845 15.5068,-11.56937 21.33561,-12.90917 l 3.00111,-0.68982 -3.93466,2.07905 c -7.21627,3.81305 -10.69061,7.14656 -18.35697,17.61284 -6.32527,8.63534 -7.09748,9.9477 -9.04011,15.35949 -3.01547,8.40098 -4.23157,15.62874 -3.57243,21.23246 l 0.56954,4.84205 4.49507,-0.83152 c 5.57182,-1.03074 13.38183,-3.9066 18.8173,-6.92911 4.32348,-2.40424 5.01036,-2.44285 5.1292,-0.28877 0.14355,2.60213 -6.63738,8.01428 -17.29908,13.80716 -7.47852,4.06336 -12.81371,7.86442 -16.11265,11.47951 -1.5868,1.73894 -3.08453,3.01392 -3.32819,2.83339 -0.24368,-0.18051 -0.94965,-2.31762 -1.56879,-4.74915 -3.32771,-13.06851 -0.25642,-31.44601 7.68958,-46.01156 2.39006,-4.38111 9.20217,-13.80128 12.17543,-16.83687 z m 45.89903,-32.33431 c 16.63392,-16.70702 42.08674,-21.06135 68.07228,-11.6454 8.10908,2.93834 23.87377,11.09761 24.50658,12.68378 0.45255,1.1343 -4.15233,6.38911 -9.23796,10.54183 -8.96055,7.3168 -21.81009,13.91065 -30.49009,15.64622 -4.92218,0.98421 -8.04742,0.30692 -11.96051,-2.59204 -2.62891,-1.94758 -2.27184,-2.94494 1.19544,-3.33905 4.02104,-0.45705 17.31184,-5.54786 22.35825,-8.56398 4.76109,-2.84557 12.19111,-8.774 12.06427,-9.62611 -0.11529,-0.77428 -12.06876,-6.21605 -17.6167,-8.01989 -19.53029,-6.35011 -40.43779,-4.22575 -56.71662,5.76276 -2.23696,1.37258 -4.62469,2.83168 -5.30605,3.24245 l -1.23888,0.74686 0.8255,-1.05313 c 0.45418,-0.57906 2.04904,-2.28216 3.54457,-3.78426 z m -19.11878,25.9557 c -0.20484,0.99269 -0.85529,4.14247 -1.44545,6.99947 -1.67331,8.10049 -1.76315,16.29036 -0.27501,25.06537 1.54651,9.11911 3.27121,14.30033 7.52152,22.59565 2.9321,5.72258 10.80285,17.15883 14.19646,20.62747 l 1.7762,1.81551 1.73476,-2.35861 c 5.49991,-7.47662 8.04448,-19.63589 7.2076,-34.44168 -0.16192,-2.86436 -0.17676,-5.3667 -0.033,-5.56079 0.14383,-0.1942 1.87595,0.99069 3.84928,2.63273 2.59802,2.1619 3.77202,3.59881 4.25554,5.20817 0.80831,2.69038 0.65112,19.03007 -0.22152,23.02652 -1.49866,6.86342 -5.08743,15.2422 -9.81916,22.92493 l -2.91567,4.73411 -1.88816,-1.81278 c -1.03844,-0.99705 -3.35043,-3.12514 -5.13768,-4.72917 -17.28349,-15.51183 -27.20272,-35.11998 -27.3571,-54.07912 -0.0853,-10.47669 2.60834,-21.41227 8.03374,-32.61523 0.87207,-1.80076 0.88247,-1.80141 0.5175,-0.0328 z m 11.3046,-0.3304 c 0.43186,0.65288 2.32683,3.61105 4.21098,6.57372 6.05943,9.52796 10.01793,13.8176 18.73961,20.30724 8.6563,6.44121 14.5873,9.54145 24.76094,12.94378 7.17653,2.40005 22.35565,5.47252 22.96601,4.64865 1.27652,-1.72312 -4.47868,-14.0314 -9.8911,-21.15337 -6.41043,-8.4352 -12.10555,-13.72089 -22.82986,-21.18859 -10.5691,-7.35965 -18.24531,-11.03331 -25.70885,-12.30358 -4.63279,-0.78852 -4.63304,-1.19829 -6.1e-4,-1.02274 29.6972,1.1255 56.52473,20.75921 67.32876,49.2745 1.81468,4.78948 4.21831,15.65257 3.63702,16.43721 -0.8244,1.11281 -20.75027,-0.88394 -29.10724,-2.91684 -11.17832,-2.71917 -15.9837,-5.08093 -27.11142,-13.32473 -8.71408,-6.45567 -10.41475,-7.95655 -13.77277,-12.15394 -4.62929,-5.7866 -8.42285,-12.11105 -11.03579,-18.39835 -2.26016,-5.43842 -3.44584,-9.62798 -2.18568,-7.72296 z m 61.59641,-67.1348 c 5.85825,-0.43629 11.16432,0.66855 15.29418,3.1846 2.89421,1.76324 3.54738,2.4355 3.86581,3.97902 0.94988,4.60363 -1.23316,13.85918 -4.21964,17.89043 -1.45179,1.95967 -1.75903,2.05633 -4.36262,1.37208 -4.74157,-1.24614 -4.77342,-1.39849 -1.27859,-6.11591 2.90898,-3.92663 5.85648,-10.27396 5.62649,-12.11649 -0.16293,-1.30546 -6.73792,-1.65791 -14.09236,-0.75542 -3.73252,0.45802 -6.81253,0.65727 -6.84449,0.44279 -0.0619,-0.41593 1.46424,-7.08008 1.69172,-7.38713 0.0743,-0.10037 2.01807,-0.32257 4.3195,-0.49397 z M 313.22876,259.8551 c 1.40622,-0.6749 2.69432,-1.12517 2.86247,-1.0006 0.16816,0.1246 0.77968,2.59342 1.35903,5.48643 1.18178,5.90125 4.52933,13.61443 5.82499,13.42155 1.44318,-0.21487 6.04628,-4.87786 9.74891,-9.87578 1.95903,-2.64437 3.68037,-4.58868 3.82519,-4.32072 0.14472,0.26805 1.20418,1.92675 2.35418,3.68616 l 2.09088,3.19894 -2.67052,3.06649 c -4.59025,5.27095 -14.92722,10.11016 -17.51211,8.19827 -4.76913,-3.52701 -12.69241,-17.74632 -11.0571,-19.84245 0.33862,-0.43581 1.76781,-1.3434 3.17408,-2.01829 z m 114.27413,-64.12059 c 1.62567,-0.85566 3.08049,-1.60555 3.23297,-1.66643 0.82085,-0.3277 7.36944,5.60108 9.3142,8.43271 3.0994,4.5127 5.51368,10.09874 4.78295,11.06643 -1.52091,2.01473 -7.68935,6.67163 -10.28624,7.76645 -1.58057,0.66637 -4.46398,1.42062 -6.40754,1.67617 l -3.53374,0.46457 -1.64681,-3.02586 -1.64681,-3.02586 6.5904,-1.15489 c 5.61183,-0.98341 12.06865,-2.86084 12.68081,-3.68716 0.64829,-0.87507 -3.71712,-5.25447 -9.66831,-9.69933 -3.75768,-2.80577 -6.72706,-5.21233 -6.59955,-5.34669 0.12783,-0.13432 1.56198,-0.94448 3.18772,-1.80006 z m -44.60397,66.80961 c 4.4141,3.23714 11.56489,7.21678 13.47109,7.49751 1.41033,0.20769 1.51113,0.0957 1.8609,-2.06672 0.49378,-3.05286 -0.21666,-9.25816 -1.61213,-14.08079 -0.62475,-2.15909 -0.88837,-4.02437 -0.58582,-4.14508 0.30243,-0.1208 2.08398,0.28361 3.95874,0.8985 2.8879,0.9472 3.53064,1.37589 4.20704,2.80623 1.7749,3.75266 0.57465,12.99301 -2.42381,18.66008 -1.30183,2.46049 -1.35945,2.48537 -4.74456,2.04987 -5.96525,-0.76745 -12.06408,-2.67013 -15.95064,-4.97622 l -3.76202,-2.23217 0.8636,-2.57984 c 0.475,-1.41894 0.96222,-2.97503 1.08271,-3.45799 0.16146,-0.64715 1.11746,-0.21933 3.63485,1.6267 z"
       style="fill:#200023;fill-opacity:0.08627451;stroke-width:0.66879386" />
  </g>
</svg>
