<?xml version="1.0" encoding="UTF-8" standalone="no"?>
<!-- Created with Inkscape (http://www.inkscape.org/) -->

<svg
   xmlns:dc="http://purl.org/dc/elements/1.1/"
   xmlns:cc="http://creativecommons.org/ns#"
   xmlns:rdf="http://www.w3.org/1999/02/22-rdf-syntax-ns#"
   xmlns:svg="http://www.w3.org/2000/svg"
   xmlns="http://www.w3.org/2000/svg"
   xmlns:sodipodi="http://sodipodi.sourceforge.net/DTD/sodipodi-0.dtd"
   xmlns:inkscape="http://www.inkscape.org/namespaces/inkscape"
   width="1800"
   height="1600"
   viewBox="0 0 476.24999 423.33334"
   version="1.1"
   id="svg1060"
   inkscape:version="0.92.2 5c3e80d, 2017-08-06"
   sodipodi:docname="mand-bg.svg">
  <defs
     id="defs1054" />
  <sodipodi:namedview
     id="base"
     pagecolor="#ffffff"
     bordercolor="#666666"
     borderopacity="1.0"
     inkscape:pageopacity="0.0"
     inkscape:pageshadow="2"
     inkscape:zoom="0.72304183"
     inkscape:cx="61.289204"
     inkscape:cy="1019.0783"
     inkscape:document-units="mm"
     inkscape:current-layer="layer1"
     showgrid="false"
     units="px"
     inkscape:window-width="1920"
     inkscape:window-height="1035"
     inkscape:window-x="0"
     inkscape:window-y="1"
     inkscape:window-maximized="1" />
  <metadata
     id="metadata1057">
    <rdf:RDF>
      <cc:Work
         rdf:about="">
        <dc:format>image/svg+xml</dc:format>
        <dc:type
           rdf:resource="http://purl.org/dc/dcmitype/StillImage" />
        <dc:title />
      </cc:Work>
    </rdf:RDF>
  </metadata>
  <g
     inkscape:label="Layer 1"
     inkscape:groupmode="layer"
     id="layer1"
     transform="translate(0,126.33335)">
    <path
       style="fill:#200023;fill-opacity:0.02752297;stroke-width:0.66879386"
       d="m -245.20835,-24.735673 c -12.44987,3.48088 -26.68831,2.33769 -41.29415,-3.31544 l -7.93089,-3.06963 2.82429,-1.88335 c 6.37194,-4.24906 10.28982,-7.77089 17.53634,-15.76354 8.27932,-9.1318 11.62072,-11.66354 15.08476,-11.42945 l 2.1592,0.14593 -2.59544,3.1472 c -3.28786,3.98681 -8.92914,12.62636 -11.73021,17.96473 l -2.15855,4.1138 4.32817,1.47449 c 17.95925,6.11813 47.68108,-2.7603 60.44173,-18.05503 3.3345,-3.99668 4.77802,-4.46934 2.23542,-0.73199 -3.36145,4.94108 -9.43917,11.47086 -13.76392,14.7877 -5.15647,3.95472 -18.98575,10.89475 -25.13677,12.61453 z m 84.54229,-37.85272 c -7.22671,2.06028 -19.20108,2.37277 -24.92855,0.65049 l -2.94892,-0.88677 4.4479,0.14209 c 8.15758,0.26058 12.82674,-0.91513 24.66987,-6.21196 9.77137,-4.37018 11.09211,-5.12797 15.45964,-8.86775 6.77979,-5.80551 11.41535,-11.48275 13.61752,-16.67761 l 1.90286,-4.48876 -4.31703,-1.503427 c -5.35115,-1.86354 -13.56049,-3.23235 -19.77946,-3.29794 -4.94673,-0.0521 -5.5626,-0.35868 -4.5992,-2.28898 1.1638,-2.33179 9.73499,-3.67607 21.86629,-3.42945 8.50936,0.17297 15.02673,-0.4875 19.68293,-1.9947 2.23968,-0.72503 4.17224,-1.09108 4.29454,-0.81358 0.12232,0.27749 -0.32259,2.48377 -0.98872,4.90285 -3.58013,13.001627 -15.34855,27.447017 -29.4645,36.166777 -4.24589,2.62278 -14.82885,7.43375 -18.91515,8.59876 z m -55.88793,5.36367 c -22.72435,6.2782 -46.99372,-2.54244 -64.90719,-23.59038 -5.59012,-6.56823 -15.24608,-21.463247 -15.01043,-23.154657 0.16851,-1.20956 6.77126,-3.49467 13.24595,-4.58423 11.40797,-1.91973 25.83667,-1.28562 34.23719,1.50466 4.76371,1.58228 7.14351,3.71825 9.10769,8.174507 1.31958,2.99382 0.51549,3.68351 -2.69201,2.30899 -3.71977,-1.59405 -17.78757,-3.752477 -23.66537,-3.630967 -5.54546,0.11463 -14.93622,1.586027 -15.24797,2.389147 -0.28324,0.72978 7.4072,11.37662 11.33399,15.691 13.82335,15.18787 33.03956,23.69515 52.12855,23.07811 2.62312,-0.0848 5.42007,-0.17011 6.21544,-0.18959 l 1.44615,-0.0354 -1.23867,0.50618 c -0.68133,0.27819 -2.91026,0.96809 -4.95337,1.53255 z m 29.4629,-13.08294 c 0.66953,-0.76101 2.79433,-3.17542 4.72178,-5.36533 5.46494,-6.20906 9.59842,-13.27987 12.65072,-21.64042 3.17197,-8.688407 4.23919,-14.043837 4.6542,-23.355407 0.2863,-6.42364 -0.88878,-20.25678 -2.11953,-24.95074 l -0.64415,-2.45684 -2.67507,1.19013 c -8.48054,3.77221 -16.71223,13.07607 -23.31664,26.35363 -1.27769,2.56871 -2.5039,4.75008 -2.72493,4.8475 -0.22112,0.0975 -1.13925,-1.78963 -2.04056,-4.19337 -1.18662,-3.16472 -1.49505,-4.99444 -1.11821,-6.63206 0.62996,-2.73764 8.85756,-16.8556 11.59465,-19.89557 4.70063,-5.22079 11.96751,-10.72313 19.88271,-15.05479 l 4.87733,-2.66918 0.74278,2.5099 c 0.40847,1.38044 1.36333,4.37415 2.1218,6.65273 7.33466,22.03494 6.24291,43.98212 -3.01109,60.530107 -5.11371,9.14431 -12.86896,17.31123 -23.12996,24.35775 -1.64934,1.13265 -1.6587,1.12807 -0.46583,-0.22779 z m -9.98495,-5.31072 c -0.0519,-0.78107 -0.23342,-4.28945 -0.40331,-7.79638 -0.54636,-11.27831 -1.86135,-16.965267 -6.22516,-26.922187 -4.33099,-9.88248 -7.94863,-15.51284 -15.10265,-23.5065 -5.04647,-5.6388 -16.71256,-15.82448 -17.65078,-15.41094 -1.96229,0.86492 -3.05698,14.4081 -1.88136,23.27572 1.39243,10.50273 3.72296,17.91499 9.34231,29.713297 5.53802,11.62758 10.38795,18.62031 16.2432,23.41968 3.63448,2.97911 3.43179,3.33524 -0.5059,0.88885 -25.24338,-15.68319 -38.82876,-46.025167 -34.09511,-76.148937 0.79505,-5.05965 4.08594,-15.68764 4.9795,-16.08149 1.26728,-0.55858 17.58997,11.04301 23.84379,16.94736 8.36517,7.89764 11.37056,12.32903 16.9561,25.00136 4.37402,9.92365 5.10835,12.06973 5.94732,17.37921 1.1565,7.319667 1.3206,14.692777 0.47738,21.449007 -0.72937,5.84404 -1.77383,10.07101 -1.92533,7.79195 z m -86.75807,27.82508 c -5.30565,-2.52182 -9.36842,-6.10914 -11.71053,-10.34008 -1.64136,-2.96503 -1.87593,-3.87252 -1.38827,-5.3712 1.45436,-4.46995 7.9341,-11.43011 12.52493,-13.4536 2.23167,-0.98365 2.54646,-0.91549 4.46962,0.96822 3.50238,3.43055 3.45461,3.57868 -1.91763,5.94658 -4.47168,1.97097 -10.17549,6.02595 -10.88806,7.74061 -0.50486,1.21485 5.0329,4.77684 11.86927,7.63451 3.46959,1.45033 6.24414,2.80237 6.1657,3.00454 -0.15216,0.39201 -4.77801,5.42606 -5.12768,5.58018 -0.11427,0.0504 -1.91302,-0.71906 -3.99735,-1.70976 z m 148.6358,-63.553597 c -1.55591,-0.10998 -2.89797,-0.35663 -2.98237,-0.54811 -0.0844,-0.19152 0.60682,-2.63923 1.53604,-5.43953 1.89543,-5.71215 2.8065,-14.07093 1.58533,-14.54494 -1.36023,-0.52795 -7.66837,1.24387 -13.36004,3.75257 -3.01142,1.32734 -5.46968,2.16417 -5.46281,1.85966 0.007,-0.30454 -0.0921,-2.27023 -0.22,-4.36824 l -0.23249,-3.81457 3.83858,-1.34176 c 6.59802,-2.30638 17.97497,-1.39202 19.27398,1.54899 2.39689,5.4258 2.2395,21.70285 -0.2192,22.71419 -0.50999,0.21095 -2.20108,0.29176 -3.75702,0.18174 z m -131.03152,-0.87842 c -1.83606,-0.0616 -3.47134,-0.1305 -3.63396,-0.15311 -0.87541,-0.12176 -3.62897,-8.51535 -3.91642,-11.93844 -0.45814,-5.45535 0.21042,-11.50396 1.32446,-11.98284 2.319,-0.99726 9.98407,-1.98868 12.78237,-1.65393 1.70316,0.20373 4.58173,0.97624 6.39682,1.71663 l 3.30012,1.34621 -0.0676,3.4443 -0.0676,3.44431 -6.29755,-2.26005 c -5.36249,-1.92447 -11.90177,-3.49064 -12.84279,-3.07587 -0.99654,0.43924 0.62751,6.40567 3.59686,13.21422 1.8753,4.29835 3.2634,7.85952 3.08609,7.91311 -0.17758,0.0534 -1.82471,0.0471 -3.66082,-0.0146 z m 71.83415,-35.95682 c -2.23198,-4.99816 -6.47391,-11.99655 -7.99099,-13.18435 -1.12244,-0.8788 -1.26544,-0.83146 -2.64013,0.87408 -1.94069,2.40779 -4.39619,8.1507 -5.57187,13.03157 -0.52635,2.18516 -1.22097,3.93624 -1.54359,3.89129 -0.32257,-0.0448 -1.67011,-1.27833 -2.99441,-2.74088 -2.03995,-2.25294 -2.38608,-2.94365 -2.26546,-4.52126 0.31621,-4.13917 5.93458,-11.57278 11.34582,-15.01152 2.3494,-1.49302 2.41178,-1.4861 5.13709,0.56849 4.80254,3.6206 9.15899,8.29364 11.39368,12.22168 l 2.1631,3.80216 -2.02777,1.81371 c -1.1153,0.99756 -2.30913,2.10822 -2.65296,2.46814 -0.46073,0.48229 -1.07945,-0.36279 -2.35243,-3.21315 z"
       id="path1686"
       inkscape:connector-curvature="0" />
    <path
       style="fill:#000000;fill-opacity:0.15686275;stroke-width:0.80146402"
       d="m 192.26299,46.710278 c -1.8766,-2.44938 -3.67258,-4.25379 -3.99106,-4.00978 -1.4836,1.13667 -11.01391,0.16212 -13.4051,-1.37078 -2.46314,-1.579 -2.6818,-1.5558 -4.50879,0.47858 -1.58918,1.76957 -3.53789,4.90609 -5.09729,8.20426 -0.15894,0.33614 -0.76035,-0.004 -1.33648,-0.75606 -1.21676,-1.58813 -3.39533,-2.675 -7.78188,-3.88236 -2.9191,-0.80344 -3.17708,-0.72709 -3.7583,1.11255 -0.64913,2.05452 -5.94646,6.56763 -10.10535,8.60933 -1.91687,0.94107 -2.72175,0.79203 -4.95104,-0.9168 -2.66213,-2.04065 -6.54366,-7.45681 -7.62067,-10.63368 -0.47299,-1.39514 -1.35792,-1.63196 -5.12707,-1.37253 -2.50546,0.17249 -5.3652,0.93402 -6.35495,1.69233 -0.98974,0.75829 -1.8532,1.3062 -1.91875,1.21762 -0.0654,-0.0887 -0.48373,-2.11696 -0.92924,-4.50742 -0.44554,-2.39046 -1.60964,-5.38997 -2.58689,-6.66551 -1.53956,-2.00945 -2.16984,-2.23588 -4.71967,-1.69563 -1.61854,0.34293 -4.88467,0.0351 -7.25803,-0.68412 l -4.31521,-1.30766 -4.66369,3.5731 c -2.68499,2.05712 -4.87049,3.30316 -5.15111,2.93688 -0.27709,-0.36165 1.37637,-2.06417 3.83161,-3.94526 l 4.31907,-3.30907 -0.34006,-5.04012 c -0.22796,-3.3785 0.21676,-6.13246 1.34897,-8.35349 1.43527,-2.81553 1.46691,-3.6105 0.21055,-5.290891 -0.81321,-1.0875696 -3.27206,-2.8384496 -5.46422,-3.8907596 -2.19216,-1.05228 -4.0418,-1.98391 -4.11027,-2.07025 -0.0686,-0.0863 0.68527,-0.77746 1.67502,-1.53575 1.7863,-1.36859 5.10539,-9.37606 4.31433,-10.40857 -0.227,-0.29628 -0.79788,-0.49999 -1.2686,-0.45267 -2.34852,0.23607 -9.02443,-8.7401164 -9.10273,-12.2393074 -0.068,-3.038301 6.83163,-8.925926 12.12137,-10.343371 1.09748,-0.294084 1.34047,-1.449437 1.03301,-4.911355 -0.22115,-2.48974 -1.01716,-5.329619 -1.76894,-6.310856 -1.50304,-1.961809 -1.04748,-2.82145 1.22097,-2.303885 1.52842,0.348714 4.78421,-0.670933 8.74246,-2.73795 1.93264,-1.009241 2.19788,-1.48185 1.64814,-2.936023 -0.82489,-2.181902 -0.2281,-8.127708 1.19234,-11.879682 1.08112,-2.855687 1.07019,-2.886041 -2.8996,-8.060776 l -3.98553,-5.193768 0.38913,3.542588 c 0.42015,3.82469 -0.78182,8.351933 -2.5875,9.746041 -0.61846,0.476732 -1.99683,0.402535 -3.0639,-0.165968 -1.60306,-0.854028 -1.90935,-1.408675 -1.7631,-3.192618 0.1648,-2.01098 1.5245,-3.945066 2.17579,-3.094991 0.15809,0.206346 0.0528,1.349306 -0.234,2.53989 -0.29342,1.218122 -0.074,2.334917 0.5018,2.553935 1.57209,0.597939 2.11377,-0.180115 2.91002,-4.179947 0.53543,-2.689578 0.22171,-5.070364 -1.16067,-8.808793 -1.04192,-2.817665 -2.41966,-5.80861 -3.06163,-6.646531 -2.14418,-2.798628 -0.0967,-2.41071 2.8567,0.541246 4.19444,4.192367 8.15948,6.310033 12.33781,6.589467 3.97271,0.265658 4.86259,-0.06195 4.69507,-1.728509 -0.0622,-0.618225 -1.13527,-1.116813 -2.48136,-1.153085 -2.59431,-0.0698 -3.11236,-1.527296 -0.62359,-1.754426 4.06072,-0.370597 6.23992,2.818141 3.71323,5.433494 -1.33258,1.379373 -6.87895,1.288856 -10.65668,-0.173904 l -2.66351,-1.031332 4.26344,5.568013 c 2.63478,3.442257 4.51597,5.374504 4.92609,5.06029 1.35184,-1.035716 11.39109,0.575781 13.2247,2.122825 1.71065,1.443314 2.01359,1.412497 3.57071,-0.363193 3.06751,-3.498112 4.77897,-6.25166 4.83873,-7.785026 0.0908,-2.32415 1.0392,-2.541467 2.54029,-0.582221 0.7506,0.979706 3.05678,2.383202 5.12485,3.118887 3.7421,1.331217 3.76389,1.326482 4.54638,-0.9845 0.88846,-2.623972 7.04008,-7.571825 10.74875,-8.645407 1.80267,-0.52184 2.84946,-0.09638 5.76343,2.342461 3.42318,2.865089 4.96746,5.380303 6.13636,9.99459 0.44832,1.769704 9.934,1.379576 12.40032,-0.51 2.06867,-1.584923 2.73475,-0.955107 2.82569,2.671815 0.037,1.476272 0.77066,3.970043 1.63034,5.541726 1.51409,2.768046 1.65333,2.829019 4.44287,1.945333 2.90433,-0.920059 8.581,0.03145 12.4339,2.084125 1.91869,1.022192 2.38897,0.881658 5.80299,-1.734012 2.05261,-1.572613 3.93323,-2.561634 4.20254,-2.21013 0.27798,0.362826 -1.40387,2.085244 -3.9141,4.008464 -4.33182,3.318842 -4.3964,3.423496 -4.07649,6.606095 0.34225,3.404641 -1.18135,8.528364 -2.93571,9.872473 -0.57105,0.437515 -0.64741,1.291136 -0.1697,1.896905 1.91016,2.422148 6.68459,5.884655 9.11219,6.608076 3.36827,1.003734 3.44289,1.189294 1.17641,2.925762 -1.05669,0.80959 -2.5208,3.094556 -3.25357,5.077673 -1.29673,3.509449 -1.27425,3.626023 0.84214,4.367519 2.24867,0.787848 6.50197,5.717525 8.57318,9.9364934 1.76748,3.60028 -1.28163,6.98529002 -11.59581,12.87326 -1.32134,0.75419 -1.6237,1.94311 -1.44713,5.6886206 0.12783,2.71169 0.82534,5.52094 1.63229,6.57419 1.36312,1.77917 0.51945,3.8385 -1.11819,2.7294 -1.00068,-0.67767 -6.74491,1.26345 -9.24266,3.12337 -1.74679,1.30077 -1.95713,2.01067 -1.38636,4.67957 0.37011,1.7304 0.0517,5.19733 -0.70742,7.70427 l -1.38031,4.55807 3.3663,4.39376 c 1.91923,2.50502 3.09279,4.60329 2.73007,4.88119 -0.36355,0.27853 -2.0985,-1.42119 -4.04823,-3.96601 z m -2.49103,-9.80369 c 2.09784,-6.07632 0.99697,-10.54033 -2.28972,-9.28499 -0.96659,0.36921 -3.47717,0.65045 -5.57904,0.62503 -2.10188,-0.0254 -3.60984,0.23019 -3.35098,0.56806 0.68705,0.89675 -1.56422,6.37659 -3.10446,7.55666 -1.87985,1.44025 -1.49402,2.66177 1.24828,3.95208 2.23585,1.052 10.16286,1.44035 11.31905,0.55453 0.28849,-0.22103 1.07907,-2.00813 1.75687,-3.97137 z m -19.99458,3.26585 c 2.35947,-2.58077 4.63019,-4.96882 5.04604,-5.30681 1.12393,-0.91351 2.33412,-7.8713 1.54759,-8.8979 -0.86037,-1.12297 -1.46467,-0.62108 -2.12321,1.76351 -1.4823,5.36692 -10.39467,6.9364 -13.8415,2.43753 -0.58839,-0.76798 -1.00683,-0.68836 -1.5421,0.29343 -0.40401,0.74105 -1.85095,2.39753 -3.2154,3.68105 -2.15098,2.02342 -2.93169,2.27472 -5.87647,1.88409 -1.86762,-0.24728 -3.78986,-0.97762 -4.27166,-1.62299 -0.56572,-0.75713 0.072,-0.70462 1.79786,0.14876 4.76191,2.35466 10.26955,-0.73606 10.79035,-6.05521 l 0.3175,-3.24262 1.83873,3.05692 c 1.63276,2.71449 2.22238,3.10764 5.26327,3.51032 3.89945,0.51632 7.26211,-1.45358 8.34793,-4.89034 1.0099,-3.19637 -1.4891,-5.7037 -8.37435,-8.40221 -5.32738,-2.08796 -6.28804,-2.76244 -8.86131,-6.22163 l -2.88613,-3.8798306 -0.79528,4.5692306 c -0.62841,3.61044 -1.60069,5.57195 -4.63348,9.34768 -3.16985,3.94635 -3.92264,5.53153 -4.32309,9.10327 -0.69478,6.19705 1.34931,8.6434 9.22661,11.04239 3.27476,0.99732 7.24258,2.52873 8.81737,3.40315 2.19363,1.21805 2.93315,1.28358 3.16207,0.28019 0.16435,-0.72032 2.22928,-3.42119 4.58874,-6.00192 z m -8.19118,0.7611 c -0.73415,-0.95822 -0.66514,-1.55624 0.23129,-2.00429 0.70271,-0.35121 1.60063,-0.217 1.99542,0.29829 0.39478,0.51527 0.2907,1.41721 -0.23129,2.00429 -0.66593,0.7489 -1.26128,0.65993 -1.99542,-0.29829 z m 39.58634,-25.03883 c -0.40487,-1.76657 -0.77883,-5.678101 -0.83101,-8.6923306 -0.12128,-7.00633998 -1.88519,-10.5504 -5.4885,-11.02749 l -2.59794,-0.34399 1.01178,2.39169 c 1.33786,3.16246 0.24882,7.14188 -2.53902,9.2778 -2.56544,1.96552 -8.19018,2.7954796 -9.28257,1.36967 -0.48849,-0.63758 0.40771,-0.77731 2.61667,-0.40796 6.69874,1.12011 11.52676,-6.17028 7.53588,-11.37926 -1.87653,-2.4493 -2.32535,-2.39984 -10.62923,1.17118 -4.40199,1.89304002 -6.0479,2.13618002 -10.16412,1.50143002 l -4.91157,-0.75737002 3.01851,3.72166 c 2.72564,3.36033 3.08828,4.35102 3.73636,10.2056806 0.95336,8.61193 2.96394,11.13087 7.31044,9.15872 0.87737,-0.39802 0.74516,-0.18187 -0.31887,0.52162 -4.78722,3.16502 3.21444,5.25232 9.22213,2.40567 2.03767,-0.96554 4.35163,-2.21647 5.1421,-2.77985 0.79039,-0.56348 2.73489,-1.40615 4.32093,-1.87282 1.58602,-0.46667 3.04128,-0.93931 3.23392,-1.05029 0.19262,-0.11092 0.019,-1.64715 -0.38595,-3.41369 z m -5.62008,1.29485 c -0.41321,-0.15714 -0.80853,-0.85434 -0.8783,-1.5494 -0.15465,-1.53836 2.5011,-2.50237 2.99019,-1.08542 0.41418,1.20008 -1.05732,3.03596 -2.11189,2.63482 z m -11.9751,1.33708 c 0.8577,-1.54366 1.12725,-3.5796 0.70084,-5.29328 -0.3811,-1.53164 -0.31468,-2.314331 0.14759,-1.73933 1.29595,1.61193 0.72392,7.35269 -0.84823,8.51263 -1.10966,0.81868 -1.10969,0.5168 -2e-4,-1.48002 z m -32.89965,27.45524 c 0.44976,-1.53135 0.29413,-1.75525 -1.94606,-2.80003 -1.3392,-0.62456 -3.25921,-2.20781 -4.26669,-3.51835 -1.81476,-2.36044 -1.8558,-2.36435 -4.40818,-0.40883 -1.41704,1.08567 -3.78444,2.1894 -5.26092,2.45274 -3.83087,0.68333 -4.03245,2.48359 -0.75677,6.75907 3.13205,4.08801 5.73652,5.8164 7.58582,5.03415 2.94958,-1.24767 8.58585,-5.92881 9.0528,-7.51875 z m 63.41196,-50.1361206 c 0.27943,-2.11039 -5.52653,-10.1747824 -7.7825,-10.8097714 -1.82699,-0.514273 -1.86904,-0.478728 -2.54126,2.148194 -0.37595,1.46912 -1.80599,3.8328775 -3.17789,5.2528374 -2.29519,2.37562 -2.38078,2.73002 -1.07177,4.43856 0.78243,1.02125 1.77284,3.18420002 2.20092,4.80655 0.74326,2.81687 0.86262,2.92813 2.65001,2.47046 2.53067,-0.64797 9.49643,-6.59949 9.72249,-8.30683 z m -44.54947,10.70459 c -0.67632,-1.68746 -2.31636,-3.87648 -4.3252,-5.77309003 -1.77971,-1.68022995 -3.19057,-3.47381997 -3.13526,-3.98566997 0.0553,-0.51194 2.4988,-0.26618 5.42992,0.54612 5.59097,1.54937 8.75536,1.27375 14.2857,-1.24434 5.27179,-2.40033 5.24959,-2.28791 1.09068,-5.5263629 -5.34897,-4.1651275 -7.48638,-4.9757275 -13.16828,-4.9939435 -6.22438,-0.01995 -7.50124,-1.090315 -3.70563,-3.106366 6.44571,-3.423632 8.64463,-5.682198 11.11935,-11.420971 1.31399,-3.047128 2.30604,-5.648623 2.20452,-5.781121 -0.10155,-0.132551 -2.81146,0.03676 -6.02215,0.376126 -5.35828,0.56637 -6.18141,0.894214 -10.02528,3.992992 -2.30324,1.856781 -4.62983,4.008967 -5.17023,4.782638 -1.65302,2.366595 -2.06047,0.33455 -0.82455,-4.112323 1.63647,-5.88794 1.45446,-8.187841 -1.12879,-14.264033 l -2.26082,-5.317728 -1.39299,1.704642 c -5.96162,7.295355 -6.52209,8.515125 -6.91556,15.050828 -0.44194,7.341002 -1.42488,7.580387 -4.8904,1.191001 -1.09472,-2.018379 -2.93652,-4.355987 -4.16312,-5.283999 -1.92923,-1.459415 -10.69475,-5.121728 -11.24659,-4.698931 -0.11308,0.08664 0.0739,2.739928 0.41568,5.896078 0.6588,6.083789 1.85389,8.274239 7.46027,13.673669 3.47358,3.345363 2.8878,3.637349 -3.84476,1.916302 -5.12865,-1.310971 -9.5766,-0.618223 -16.24186,2.529527 -2.18641,1.032573 -2.33579,1.283256 -1.24933,2.096538 0.67872,0.508058 2.99983,2.250508 5.15803,3.872102 3.93678,2.9579654 6.52314,3.6695854 13.40349,3.6879054 1.93059,0.005 3.46919,0.23429 3.41909,0.50922 -0.05,0.27502 -2.39368,1.82536 -5.2075,3.44608 -4.80795,2.76854002 -5.23969,3.19823002 -7.16057,7.12657 -1.12427,2.29921 -2.32114,5.24195 -2.65973,6.53941 l -0.61558,2.3590006 6.23225,-0.902791 c 5.50881,-0.79799 6.65598,-1.25479 9.88232,-3.9351796 2.00757,-1.66776 3.99497,-3.79323 4.41656,-4.72318 0.723,-1.59478 0.55947,-1.66803 -2.88063,-1.29003 -3.93308,0.4322 -9.30988,3.83516 -9.60716,6.08034 -0.19784,1.49408 -1.92399,1.8206 -2.89875,0.54833 -0.55683,-0.72679 0.10862,-1.39922 3.34919,-3.38432 3.0465,-1.86621 4.3368,-3.10772 5.23092,-5.03282998 3.70605,-7.97982002 3.60154,-7.18325002 1.16453,-8.87413592 -1.22658,-0.8510365 -3.45132,-2.3562225 -4.94386,-3.3448955 -2.48488,-1.645944 -2.59343,-1.829948 -1.2871,-2.182038 0.78464,-0.211466 3.10668,-1.069824 5.16009,-1.907465 2.05339,-0.837622 4.01757,-1.485345 4.36483,-1.439351 0.84975,0.112512 -0.41009,-8.877789 -1.4719,-10.503506 -0.98686,-1.511079 -0.1839,-2.504914 0.89067,-1.102363 0.40199,0.524685 2.61984,1.788674 4.92856,2.808859 4.14159,1.830088 4.22813,1.824206 6.47674,-0.441698 l 2.27908,-2.296575 -1.80968,2.909248 c -0.99532,1.600075 -1.84305,2.941627 -1.88382,2.981224 -0.31635,0.30705 3.0646,9.964238 3.50899,10.023077 0.49202,0.06513 5.37495,-8.140475 5.52683,-9.287704 0.0297,-0.224232 -0.6723,-2.146027 -1.56005,-4.270325 -1.36481,-3.265923 -1.77271,-3.788087 -2.64133,-3.381426 -0.61279,0.286891 -0.60204,-0.332406 0.0267,-1.534865 0.93194,-1.782392 1.09968,-1.852471 1.44859,-0.605014 0.60396,2.159354 3.79397,9.667128 4.10786,9.667964 0.1526,4.38e-4 2.26975,-0.260175 4.7046,-0.579047 4.03823,-0.528869 4.78913,-0.908699 8.54995,-4.324773 3.27927,-2.978674 4.26086,-3.564986 4.79696,-2.86526 0.95713,1.249258 0.17517,2.824844 -1.30472,2.628893 -2.23389,-0.295786 -6.43208,3.663622 -8.38981,7.912584 -1.02164,2.217313 -1.9058,4.371303 -1.96481,4.786714 -0.10037,0.706607 4.70661,4.767213 7.88515,6.6608285 0.98974,0.5896399 1.09063,0.8783699 0.33347,0.9544999 -1.72318,0.17321 -9.59805,3.64202 -9.86573,4.34576 -0.13336,0.3506 0.1684,2.82857002 0.67057,5.50657 l 0.913,4.8691 -5.0074,-2.42764 c -2.75411,-1.33519 -5.08059,-2.47078 -5.17,-2.52354 -0.0894,-0.0529 -1.57862,1.87982 -3.3093,4.29462 -3.68744,5.1449296 -3.50679,4.9570996 -3.62605,3.77054 -0.15588,-1.55053 -3.4305,-8.909 -4.07348,-9.15358003 -0.33029,-0.12553 -0.81986,1.15107003 -1.08809,2.83703003 -0.26824,1.68594 -0.81118,4.82416 -1.20652,6.9738296 -0.67904,3.691961 -0.038,6.349601 3.35273,13.901061 l 0.88981,1.9817 3.24236,-4.29586 c 4.3167,-5.71931 4.70071,-6.7126 4.96639,-12.8464506 0.26042,-6.01316 1.01552,-7.20871 2.52074,-3.99106 0.5711,1.22084 2.17805,3.78167 3.57099,5.6907196 2.16732,2.970401 3.35776,3.796811 8.25337,5.729871 l 5.72075,2.25884 -0.45917,-4.87259 c -0.25255,-2.679931 -0.94941,-6.0957306 -1.54856,-7.5906906 z m -2.94169,7.3210206 c -1.19267,-0.45366 -1.27625,-2.05117 -0.15234,-2.912261 0.50421,-0.3863 1.35546,-0.1298 1.89164,0.570031 1.00913,1.31714 -0.18975,2.9316 -1.7393,2.34223 z m -37.07462,-47.779577 c -1.67316,-0.381753 -2.10743,-1.963398 -0.81166,-2.956159 0.98621,-0.75559 2.48609,0.01771 2.95397,1.523004 0.41874,1.347186 -0.32839,1.846991 -2.14225,1.433227 z m 11.46842,69.813967 c 1.00057,-1.62969 0.0863,-2.48219 -1.42245,-1.32628 -0.6943,0.53193 -2.83738,0.84809 -4.76239,0.70257 -2.96534,-0.22416 -3.83336,-0.69971 -5.68223,-3.1129 -1.46196,-1.90817 -2.1209,-3.59685 -1.99634,-5.11606 0.1832,-2.23435 0.16699,-2.25325 -1.09923,-1.28313 -1.91594,1.46791 -6.19718,1.13168 -8.88086,-0.69749 -1.88401,-1.28414 -2.53318,-2.23321 -3.16482,-4.62704 -0.75016,-2.84306 -0.86253,-2.95951 -2.0088,-2.08129 -1.19294,0.91398 -2.1536,6.20152 -1.38298,7.61199 0.21597,0.39551 0.85916,1.49758 1.42915,2.44915 1.38492,2.31215 5.00186,10.38413 5.44241,12.1459 0.25555,1.02197 0.84927,1.21947 2.17267,0.72274 1.0016,-0.37594 4.2049,-0.71359 7.1185,-0.75033 8.04719,-0.10144 12.30346,-1.48792 14.23744,-4.63788 z m -20.35181,1.02862 c -0.55337,-0.21047 -0.93612,-0.9114 -0.85056,-1.5576 0.19994,-1.51006 2.76466,-2.29159 3.21727,-0.98029 0.4607,1.33484 -1.10775,3.01673 -2.36671,2.53789 z m 79.65736,-47.038791 c 0.86403,-1.3142 2.10907,-4.373525 2.76674,-6.79852 0.65763,-2.424999 1.8498,-5.630912 2.64924,-7.124289 1.91491,-3.577138 1.89614,-3.379043 0.35378,-3.730928 -0.74255,-0.169431 -3.71324,-2.484883 -6.60151,-5.145476 -5.67926,-5.231544 -6.04182,-5.46266 -9.61237,-6.127473 -3.08998,-0.575335 -5.50358,1.029725 -3.15175,2.09593 0.88076,0.399309 1.96645,1.27128 2.41264,1.93775 0.7003,1.045919 0.63554,1.070091 -0.47359,0.176805 -1.86456,-1.501859 -4.78048,-1.890499 -6.17396,-0.822878 -0.66475,0.509304 -2.23,3.525889 -3.47831,6.703514 -2.04598,5.208176 -2.68853,6.098429 -6.52048,9.034291 l -4.25083,3.25679 4.78086,0.633027 c 4.58645,0.607251 5.92814,1.321945 12.7876,6.8116505 3.54376,2.8361369 5.94887,3.1414669 7.69413,0.9768469 3.86628,-4.7953424 1.01189,-12.2523594 -4.81639,-12.5826364 l -2.93741,-0.166447 1.91416,-1.466542 c 2.84135,-2.176914 4.04048,-4.994225 3.43254,-8.064744 -0.36438,-1.840535 -0.24557,-2.356809 0.36397,-1.581435 1.22444,1.557385 0.35252,7.477041 -1.28611,8.732485 -1.58859,1.217104 -1.64069,1.13218 1.69363,2.760589 2.37722,1.160951 2.79958,1.675275 3.76783,4.58837 0.83288,2.5059 0.72362,4.015972 -0.46256,6.3929785 -1.44283,2.8913319 -1.42339,3.1092519 0.27428,3.0712319 2.23634,-0.0501 2.87,-0.51303 4.87382,-3.5609454 z m -1.86368,-13.540704 c -1.19268,-0.453649 -1.27623,-2.05117 -0.15233,-2.912255 0.50422,-0.386306 1.35545,-0.129803 1.89163,0.570029 1.00913,1.317142 -0.18975,2.931593 -1.7393,2.342226 z M 141.5803,30.197048 c 0.16739,-2.04161 -0.32551,-3.69945 -3.27757,-11.02405 -1.24169,-3.08087 -1.60004,-5.62583 -1.187,-8.429841 l 0.59168,-4.0166596 -3.79594,2.90827 c -3.30123,2.5292506 -4.59991,2.9979206 -9.96502,3.5961406 -8.08322,0.90129 -10.41895,2.58607 -9.32631,6.72714 1.55403,5.88956 7.54769,7.66709 12.8046,3.79741 1.88847,-1.39017 2.02053,-1.3826 1.1634,0.0662 -1.40973,2.38305 -0.38718,6.88896 2.06242,9.08818 3.77377,3.38805 10.56782,1.7017 10.92974,-2.71282 z M 160.55017,0.37620742 c -0.26908,-1.98200002 -0.80036,-4.00974002 -1.18066,-4.50611002 -0.99999,-1.3052 -8.32362,-5.4208459 -8.88324,-4.9920889 -0.64341,0.492949 1.51577,9.02629892 2.6018,10.2826989 0.8877,1.0271 7.04861,3.49742 7.63093,3.05986 0.17615,-0.13243 0.10024,-1.86237 -0.16883,-3.84435998 z m 5.56925,-11.36671642 c -1.53712,-1.284274 -3.33815,-2.459036 -4.00229,-2.610559 -1.61259,-0.367911 -10.35257,2.064643 -10.46485,2.912651 -0.1495,1.1291535 8.11678,5.5688044 9.84243,5.2861344 1.42938,-0.23414 7.17196,-2.64501 7.35161,-3.08636 0.0373,-0.0918 -1.18981,-1.2175279 -2.7269,-2.5018664 z M 150.3128,3.1032874 c 0.50821,-0.81606 0.93284,-2.10580003 0.94364,-2.86603998 0.0272,-1.91663002 -2.24268,-9.17889992 -2.89601,-9.26540992 -0.29399,-0.03892 -1.71144,2.0349199 -3.14997,4.6085199 -2.68032,4.79522002 -2.67939,5.42953 0.0162,11.25384 0.7377,1.59395 0.92425,1.5743 2.47994,-0.26176 0.92523,-1.09197 2.09803,-2.65307 2.60624,-3.46915 z M 109.34877,27.440668 c -0.57432,-1.22774 -0.8574,-3.6431 -0.6291,-5.36751 l 0.41513,-3.13528 -2.94655,-0.72747 c -1.62061,-0.4001 -3.83561,-1.52291 -4.92222,-2.49516 -1.08663,-0.97222 -2.31764,-1.5057 -2.73558,-1.18549 -1.36008,1.04203 -2.67375,7.08998 -2.28982,10.54216 l 0.37485,3.37076 3.85861,1.25476 c 3.91603,1.27342 7.74968,1.48825 9.14862,0.5126 0.4237,-0.2954 0.30038,-1.54169 -0.27394,-2.76937 z m 90.34081,-69.212441 c 0.59587,-1.566615 0.96309,-4.585417 0.81604,-6.708436 l -0.26737,-3.860054 -4.13876,-1.345883 c -4.17389,-1.357266 -9.1612,-1.125374 -9.7619,0.453903 -0.17881,0.470131 0.11505,1.429288 0.65302,2.131465 1.20111,1.567708 1.74314,4.365629 1.46898,7.583012 l -0.20707,2.430363 2.43764,0.404104 c 1.3407,0.222259 3.33911,0.962883 4.44091,1.645837 2.38721,1.479711 3.12369,1.03795 4.55851,-2.734311 z m -54.42582,35.6084604 c 1.13627,-2.02149 1.59964,-3.6500889 1.05068,-3.6927169 -0.54016,-0.04193 -3.10539,0.509521 -5.70052,1.225427 l -4.71842,1.3016799 -1.60866,3.94775 c -0.88466,2.17138 -1.52056,4.06269997 -1.41301,4.20307997 0.1075,0.1403 1.97652,0.0595 4.1533,-0.17974 4.28274,-0.47065995 5.01712,-1.07743995 8.23672,-6.80534997 z m 17.87595,-13.2288454 1.15281,-3.476553 -2.47774,-0.0316 c -4.69834,-0.05994 -6.22695,0.837467 -8.78684,5.158568 -1.30835,2.208503 -2.24527,4.402752 -2.08208,4.876109 0.32726,0.949143 7.62003,-0.64026 9.71779,-2.117927 0.72779,-0.512627 1.84201,-2.49651 2.47606,-4.408596 z m -53.1907,34.511286 c -0.73818,-0.40624 -2.2469,-1.66694 -3.35275,-2.80157 -2.47222,-2.5366506 -2.53964,-7.5861706 -0.13927,-10.4311906 1.48908,-1.76491998 1.46621,-1.89905998 -0.42577,-2.49681998 -2.63376,-0.83214002 -5.44046,-4.58180002 -5.56231,-7.43113002 -0.0536,-1.2518239 0.58604,-3.4661194 1.42129,-4.9206914 1.37376,-2.39233 1.35197,-2.666726 -0.22855,-2.87599 -2.78588,-0.368863 -5.1658,3.065569 -7.76313,11.2028214 -1.28935,4.03945002 -2.72264,7.63435 -3.18512,7.98868 -0.9916,0.75972 -0.77924,1.142 1.11021,1.99859 0.76977,0.34897 3.78391,2.83866 6.69812,5.5326396 4.23606,3.915941 5.93021,4.995581 8.44873,5.384081 3.52935,0.54446 5.01484,-0.0288 2.97856,-1.14943 z M 96.01789,3.9665574 c -1.05773,-0.24132 -1.30264,-0.69276 -1.02824,-1.89548 0.44281,-1.94080998 2.61489,-1.91640998 3.19191,0.0359 0.46963,1.58908 -0.33146,2.27756 -2.16369,1.8595 z m 22.229,2.28285 c 2.19852,-5.60950003 2.73398,-6.35925998 6.47097,-9.06104 l 4.07418,-2.94544 -4.25635,-0.46053 c -3.90364,-0.42234 -10.0289,-3.7553669 -12.26494,-6.6738864 -1.20927,-1.578366 -5.34082,-3.09274 -6.90108,-2.529499 -2.04492,0.738179 -4.62784,5.365013 -4.25741,7.6263854 0.59222,3.61547 3.61205,6.44872 7.25338,6.80525002 l 3.3843,0.33136 -2.1732,1.0669 C 107.05619,1.6463074 104.87,5.6666874 105.29776,8.2779474 c 0.73998,4.5176006 5.90878,7.6446906 8.87709,5.3705106 0.92138,-0.70592 2.75382,-4.0354606 4.07208,-7.3990006 z m 27.07149,-18.7334884 c -3.40852,-2.384772 -7.90993,-4.618169 -9.10478,-4.517369 -0.69515,0.05864 -2.74447,0.732787 -4.55402,1.498098 l -3.29011,1.391472 2.42334,2.294826 c 3.45805,3.2746115 5.11919,3.6483714 10.35721,2.3303335 5.79351,-1.4578045 6.07724,-1.6618185 4.16841,-2.9973065 z m 36.90675,-30.043127 -0.89538,-2.84778 1.46557,2.663351 c 1.55599,2.827754 2.31495,2.82503 3.60139,-0.01261 1.03883,-2.29144 0.12436,-6.256687 -2.4112,-10.455203 -1.21182,-2.006595 -2.6822,-5.098796 -3.26753,-6.871601 -1.38383,-4.191237 -1.40807,-4.215395 -3.47868,-3.467926 -0.97214,0.35091 -4.01577,0.677681 -6.76363,0.726133 -7.20366,0.127035 -10.62719,0.901364 -12.75368,2.884608 -1.98963,1.855611 -1.56692,5.045866 0.46257,3.490963 0.57743,-0.442405 2.52789,-0.608673 4.33436,-0.369488 3.72477,0.49316 6.97819,3.847758 7.12799,7.349615 0.0805,1.881784 0.29179,1.960356 3.30433,1.228734 1.77011,-0.429892 4.10861,-0.307319 5.19672,0.272368 3.15122,1.678859 3.44135,2.728106 0.33748,1.220516 -3.36331,-1.63359 -6.6783,-1.200374 -8.80954,1.151276 l -1.55959,1.720862 0.56081,-3.353917 c 1.02117,-6.107129 -4.29206,-10.571529 -10.15331,-8.531218 -2.68582,0.934959 -2.93584,1.212371 -2.99257,3.320747 -0.034,1.26529 0.55609,3.715004 1.31142,5.443828 3.26784,7.479627 3.5906,8.893477 3.00417,13.159454 l -0.61868,4.500504 3.96433,-3.086524 c 3.57945,-2.78676 4.59869,-3.154189 10.49727,-3.784319 7.95427,-0.849687 9.82719,-2.243616 8.5353,-6.352466 z m -7.44516,-13.076304 c -1.4971,-0.919208 -0.70898,-3.135774 1.09004,-3.065639 1.01579,0.0396 1.33496,0.403785 1.29312,1.475632 -0.0736,1.887762 -0.94806,2.471184 -2.3832,1.590068 z m -28.35924,36.796215 -1.56901,-5.538628 -4.20471,-1.745322 -4.20472,-1.745287 0.32009,3.184268 c 0.5484,5.455619 1.29719,7.001359 4.19806,8.666221 1.4609,0.838422 3.39487,1.98073 4.29774,2.538459 2.60895,1.611591 2.83811,0.555036 1.16255,-5.359711 z m 2.45987,-26.862679 c 4.72928,-5.594477 5.31277,-8.066357 2.47015,-10.464705 -2.38532,-2.01251 -7.6386,-2.319964 -9.90971,-0.579945 -1.73126,1.326412 -3.20831,4.700128 -3.19674,7.301609 0.005,1.050818 -0.36922,0.776634 -1.47844,-1.084171 -1.26313,-2.119059 -2.07294,-2.56852 -5.42685,-3.012657 -4.32405,-0.572508 -6.09165,0.328712 -7.81079,3.982409 -1.58166,3.361505 0.18183,5.296205 7.40951,8.128939 5.49382,2.153179 6.19913,2.667674 9.28187,6.770745 l 3.33632,4.440463 0.64095,-5.350151 c 0.57651,-4.812174 1.04748,-5.831013 4.68377,-10.132567 z m -21.17257,20.427214 c -2.83067,-3.564262 -3.17923,-4.515312 -3.81004,-10.395048 -0.88728,-8.269917 -2.37818,-10.40866 -6.49807,-9.32159 -5.61337,1.481142 -7.70073,7.626389 -4.16016,12.247619 l 1.20529,1.573172 -3.28446,-0.43489 c -2.43167,-0.321967 -3.88807,0.02756 -5.60908,1.346119 -3.19998,2.451676 -3.88794,7.444626 -1.46207,10.610916 2.20335,2.875868 4.22311,2.761198 11.61075,-0.659205 4.90504,-2.271002 6.15823,-2.491346 10.2326,-1.799089 2.55363,0.433871 4.69877,0.781287 4.76695,0.772035 0.0682,-0.0093 -1.27798,-1.782328 -2.99243,-3.939491 z M 94.81506,-12.40992 c 0.85406,-1.487303 2.27777,-3.259582 3.16379,-3.938409 1.39721,-1.070479 1.39828,-1.511818 0.008,-3.326432 -0.88162,-1.150704 -1.87361,-3.560581 -2.2044,-5.355251 -0.6684,-3.626049 -1.50843,-4.01186 -4.91597,-2.257786 -2.66314,1.370863 -7.13093,6.395343 -6.98425,7.854488 0.21454,2.13439 4.18907,8.121201 6.22125,9.371114 2.32802,1.4318435 2.62669,1.2830035 4.71157,-2.347724 z m 57.0232,-48.571863 c -1.32012,-1.31565 -4.32348,-2.872028 -7.2901,-3.777818 -2.7748,-0.847212 -6.49776,-2.198851 -8.27323,-3.003613 -2.6465,-1.1996 -3.34132,-1.200477 -3.85643,-0.005 -0.34556,0.802008 -2.73474,3.689828 -5.30928,6.417379 -5.09529,5.39808 -5.93421,6.774208 -6.2146,10.194102 -0.24453,2.982671 0.46188,2.94493 2.66234,-0.142225 2.53442,-3.555668 6.85237,-4.431376 10.94041,-2.2188 2.97528,1.610315 3.00309,1.605408 4.08272,-0.721501 1.28517,-2.769956 5.13546,-5.092974 8.04585,-4.854362 1.08925,0.08929 3.05523,0.894915 4.36883,1.790243 2.02228,1.378362 2.44201,1.3927 2.73843,0.09346 0.24839,-1.088721 -0.30203,-2.184328 -1.89494,-3.771856 z m -17.18013,0.289414 c -1.34073,-0.509977 -0.90719,-2.636871 0.63011,-3.091192 0.73961,-0.218579 1.43368,0.155197 1.65049,0.888843 0.43273,1.4642 -0.88238,2.734159 -2.2806,2.202349 z m 29.09309,-7.563431 c -1.26663,-3.63868 -7.11117,-8.870008 -9.03335,-8.085579 -3.94918,1.611653 -6.96324,3.698476 -8.41214,5.824255 -1.90504,2.794992 -1.74786,3.119836 2.4873,5.141142 1.75082,0.835588 3.85007,2.389545 4.66501,3.453217 1.38596,1.808986 1.63637,1.81642 3.87466,0.115483 1.31631,-0.999934 3.39912,-1.987776 4.62885,-2.194664 2.81427,-0.473475 2.97372,-0.852475 1.78967,-4.253854 z m -61.27269,47.854568 c -0.42894,-0.559852 -0.55226,-2.73708 -0.27407,-4.838284 0.59438,-4.489089 3.46227,-7.265775 7.38444,-7.149635 l 2.43891,0.0722 -0.85822,-2.545312 c -0.94736,-2.809665 0.41852,-8.070408 2.50858,-9.66202 0.73696,-0.561721 2.44232,-1.213218 3.78918,-1.448503 2.24969,-0.392984 2.3754,-0.523556 1.54617,-1.605893 -1.29942,-1.696021 -6.79894,-1.709831 -9.89286,-0.02484 -3.31842,1.807262 -10.50689,5.035893 -12.18436,5.472479 -0.88785,0.23107 -1.04786,1.282008 -0.53896,3.540327 0.39804,1.766436 0.74344,5.60618 0.76755,8.532768 0.0432,5.248291 1.52506,9.680938 3.67832,11.002968 1.4625,0.897927 2.62284,-0.05732 1.63534,-1.346223 z m -1.48505,-16.918894 c -1.70887,-1.049202 -1.30428,-3.54535 0.46854,-2.890755 0.72955,0.269369 1.44729,0.823151 1.59495,1.230614 0.48867,1.348357 -0.83576,2.413907 -2.06345,1.660194 z m 18.43174,-15.656382 c 0.0974,-1.187548 1.06141,-3.312901 2.14232,-4.723005 1.70267,-2.221263 1.76592,-2.707613 0.47342,-3.63982 -1.89031,-1.363339 -8.01342,-2.384366 -11.10052,-1.850992 -2.15794,0.372824 -2.46402,0.714104 -3.53913,3.946498 -1.17536,3.533693 -1.3933,6.427727 -0.67943,9.021809 0.29114,1.057923 1.04952,1.119576 3.29452,0.267694 1.60399,-0.608621 4.14531,-0.904659 5.64736,-0.657862 3.29505,0.541382 3.53563,0.39014 3.76146,-2.364322 z"
       inkscape:connector-curvature="0"
       id="path2378" />
  </g>
</svg>
