<?xml version="1.0" encoding="UTF-8" standalone="no"?>
<!-- Created with Inkscape (http://www.inkscape.org/) -->

<svg
   xmlns:dc="http://purl.org/dc/elements/1.1/"
   xmlns:cc="http://creativecommons.org/ns#"
   xmlns:rdf="http://www.w3.org/1999/02/22-rdf-syntax-ns#"
   xmlns:svg="http://www.w3.org/2000/svg"
   xmlns="http://www.w3.org/2000/svg"
   xmlns:sodipodi="http://sodipodi.sourceforge.net/DTD/sodipodi-0.dtd"
   xmlns:inkscape="http://www.inkscape.org/namespaces/inkscape"
   width="500"
   height="500"
   viewBox="0 0 132.29166 132.29167"
   version="1.1"
   id="svg10195"
   inkscape:version="0.92.2 5c3e80d, 2017-08-06"
   sodipodi:docname="t-shirt.svg">
  <defs
     id="defs10189" />
  <sodipodi:namedview
     id="base"
     pagecolor="#ffffff"
     bordercolor="#666666"
     borderopacity="1.0"
     inkscape:pageopacity="0.0"
     inkscape:pageshadow="2"
     inkscape:zoom="0.35"
     inkscape:cx="-125.71429"
     inkscape:cy="560"
     inkscape:document-units="mm"
     inkscape:current-layer="layer1"
     showgrid="false"
     units="px"
     inkscape:window-width="1920"
     inkscape:window-height="1035"
     inkscape:window-x="0"
     inkscape:window-y="1"
     inkscape:window-maximized="1" />
  <metadata
     id="metadata10192">
    <rdf:RDF>
      <cc:Work
         rdf:about="">
        <dc:format>image/svg+xml</dc:format>
        <dc:type
           rdf:resource="http://purl.org/dc/dcmitype/StillImage" />
        <dc:title></dc:title>
      </cc:Work>
    </rdf:RDF>
  </metadata>
  <g
     inkscape:label="Layer 1"
     inkscape:groupmode="layer"
     id="layer1"
     transform="translate(0,-164.70832)">
    <path
       style="fill:#000000;stroke-width:0.26458332"
       d=""
       id="path10802"
       inkscape:connector-curvature="0" />
    <path
       style="fill:#ffffff;stroke-width:0.26458332;fill-opacity:1"
       d="m 62.384653,284.39481 c -0.34283,-0.13199 -1.99255,-0.1687 -3.66604,-0.0816 -2.78688,0.14509 -3.19577,0.10386 -4.86313,-0.49032 -1.10181,-0.39265 -2.10874,-0.59107 -2.55081,-0.50265 -0.49317,0.0986 -1.27686,-0.10805 -2.41292,-0.63635 -0.92538,-0.43034 -2.35746,-0.98645 -3.18239,-1.2358 -1.17984,-0.35662 -1.78673,-0.75667 -2.84427,-1.87486 -0.73942,-0.78183 -1.3444,-1.56511 -1.3444,-1.74063 0,-0.17552 -0.50602,-0.88148 -1.12448,-1.5688 -1.94692,-2.16369 -2.37875,-2.74424 -2.65092,-3.56388 -0.14566,-0.43867 -0.78094,-1.90099 -1.41174,-3.24962 -1.03603,-2.21499 -1.22664,-3.01139 -1.12287,-4.69171 0.018,-0.29104 -0.10794,-1.58589 -0.2798,-2.87745 -0.17187,-1.29156 -0.30644,-2.89891 -0.29904,-3.57188 0.0276,-2.51654 -0.18569,-5.2303 -0.45061,-5.73199 -0.15065,-0.28527 -0.46491,-1.94743 -0.69836,-3.69368 -0.35774,-2.67594 -0.3711,-3.40373 -0.085,-4.6302 0.40549,-1.73807 0.0526,-4.45258 -0.73391,-5.6456 -0.45129,-0.68454 -0.59298,-0.73611 -1.60542,-0.58428 -1.24576,0.18681 -4.27069,1.66404 -5.67746,2.77258 -0.50933,0.40136 -1.31437,0.93049 -1.789,1.17585 -0.47462,0.24536 -1.11737,0.8293 -1.42832,1.29764 -1.59302,2.39929 -4.25631,3.77521 -7.89846,4.08056 -2.03453,0.17057 -3.9456,-0.37552 -4.9683697,-1.41971 -0.33331,-0.34029 -0.71154,-0.61871 -0.84052,-0.61871 -0.24431,0 -1.067,-1.48118 -1.067,-1.92105 0,-0.58829 -1.61352,-3.56711 -2.2587,-4.16992 -0.89067,-0.83219 -1.31194,-1.6493 -2.15499,-4.17992 -0.37237,-1.11773 -0.90083,-2.24523 -1.17438,-2.50556 -0.27354,-0.26033 -0.49735,-0.64729 -0.49735,-0.8599 0,-0.21261 -0.0999,-0.38657 -0.22211,-0.38657 -0.47110997,0 -0.86270997,-1.49035 -0.98659997,-3.75475 -0.10957,-2.00285 -0.0548,-2.46826 0.36131,-3.07309 0.26973,-0.39203 0.64628997,-1.10351 0.83677997,-1.58105 0.19049,-0.47755 0.65776,-1.27142 1.03838,-1.76416 0.38062,-0.49273 1.28735,-1.85697 2.01495,-3.03162 0.72761,-1.17466 1.40045,-2.13696 1.49522,-2.13845 0.0948,-0.002 0.40803,-0.40224 0.69615,-0.89056 0.28812,-0.48832 0.76688,-1.17293 1.06392,-1.52136 1.95549,-2.29379 2.6593297,-3.29807 2.9191497,-4.16529 0.1623,-0.54172 0.52344,-1.23004 0.80251,-1.52959 0.27908,-0.29956 0.6959,-0.90912 0.92625,-1.35459 0.23036,-0.44546 0.61064,-1.00174 0.84506,-1.23615 0.72922,-0.72923 2.49623,-3.16757 2.50248,-3.45326 0.003,-0.14944 0.59959,-0.68842 1.32516,-1.19774 0.72556,-0.50933 1.38993,-1.1911 1.47636,-1.51505 0.14664,-0.54961 0.74191,-1.13178 3.18188,-3.11185 0.53571,-0.43474 1.19181,-1.14857 1.458,-1.58627 0.69482,-1.14254 3.92022,-4.34527 4.85578,-4.82165 0.43656,-0.22229 1.03187,-0.61876 1.32291,-0.88105 0.70176,-0.63242 5.66083,-3.16559 6.19524,-3.16462 0.23064,4.2e-4 1.13372,-0.28208 2.00685,-0.62776 2.15466,-0.85307 3.37367,-1.22509 4.01427,-1.22509 1.36507,0 4.34277,2.26792 5.25782,4.00454 0.20206,0.38348 0.87741,0.99786 1.50077,1.36528 1.45547,0.85788 2.4541,2.83087 3.37538,6.66872 0.30322,1.26315 0.89462,2.98638 1.31665,3.83646 0.10837,0.21828 0.35654,1.02101 0.55149,1.78385 0.20595,0.80587 0.64525,1.66556 1.04852,2.05192 0.72044,0.69023 3.10608,1.45183 4.57769,1.46141 0.46585,0.003 1.6209,0.16908 2.56678,0.369 0.94589,0.19991 1.83886,0.27516 1.98438,0.16722 0.14552,-0.10795 1.09802,-0.48013 2.11666,-0.82709 3.71107,-1.264 4.11973,-1.77073 4.78411,-5.93235 0.35411,-2.2181 0.61569,-3.11182 1.20031,-4.10104 0.5984,-1.01252 0.82477,-1.87476 1.00829,-3.84058 0.27413,-2.93636 1.3267,-5.26647 2.69413,-5.96407 0.55023,-0.28071 1.09609,-0.66636 1.21304,-0.857 0.11694,-0.19065 0.88953,-0.72394 1.71686,-1.18509 1.18475,-0.66038 1.90333,-0.86298 3.38325,-0.9539 1.03346,-0.0635 2.06103,-0.26649 2.28349,-0.45112 0.32573,-0.27034 0.58365,-0.27091 1.32467,-0.003 0.52976,0.19157 1.34012,0.26179 1.90995,0.16552 0.79828,-0.13487 1.18224,-0.0366 1.98457,0.50786 0.54714,0.3713 1.2858,0.67509 1.64148,0.67509 0.58737,0 1.13959,0.32758 2.11856,1.25677 0.19165,0.1819 0.82195,0.33073 1.40066,0.33073 0.82372,0 1.3018,0.20934 2.20171,0.9641 0.63223,0.53026 1.7582,1.36967 2.50215,1.86537 0.74395,0.49569 1.485537,1.19293 1.647967,1.54943 0.16244,0.3565 0.41695,0.64818 0.56559,0.64818 0.14864,0 0.27026,0.15947 0.27026,0.35438 0,0.1949 0.47308,0.79208 1.05129,1.32706 0.57821,0.53499 1.53166,1.68008 2.11879,2.54465 0.58712,0.86457 1.59751,2.015 2.24532,2.55649 0.67514,0.56436 1.24714,1.30015 1.34024,1.72403 0.19605,0.89257 2.04367,2.89466 3.23238,3.50262 0.47294,0.24188 0.85989,0.55077 0.85989,0.68641 0,0.13565 0.56555,0.57416 1.25677,0.97447 1.22735,0.71078 1.7712,1.2576 2.32236,2.33498 0.14951,0.29225 0.84926,0.90965 1.55502,1.37199 0.70575,0.46235 1.66065,1.20649 2.12201,1.65365 0.46136,0.44716 1.01444,0.81302 1.22909,0.81302 0.21464,0 0.80428,0.48032 1.31032,1.06737 0.50603,0.58705 1.89456,1.6817 3.08562,2.43255 2.28508,1.44054 2.31036,1.47194 3.35849,4.173 1.01863,2.62507 1.74233,4.02965 2.48366,4.82037 0.60017,0.64016 0.6877,0.99372 0.79535,3.21273 0.11752,2.42239 0.0944,2.54886 -0.81134,4.44005 -0.51276,1.07065 -1.00538,2.19794 -1.0947,2.50509 -0.0893,0.30715 -0.69453,1.08106 -1.34491,1.71979 -0.65038,0.63874 -1.18546,1.33994 -1.18907,1.55822 -0.007,0.41383 -1.10149,1.5875 -1.48061,1.5875 -0.11989,0 -0.4603,0.22673 -0.75646,0.50385 -3.30521,3.09267 -4.38476,3.97107 -5.2046,4.23483 -0.52908,0.17022 -1.69783,0.90006 -2.59722,1.62186 -0.89938,0.72181 -1.89525,1.31768 -2.21303,1.32416 -0.31778,0.006 -1.66391,0.0747 -2.99139,0.15159 -2.8101,0.16277 -4.36299,-0.16904 -5.33358,-1.13962 -0.37119,-0.37119 -1.04211,-0.83047 -1.49094,-1.0206 -1.38932,-0.58857 -2.59052,-1.78069 -3.21965,-3.19532 -0.34063,-0.76593 -1.30655,-2.07256 -2.220317,-3.00352 -1.43622,-1.46322 -1.59717,-1.56328 -1.43682,-0.89325 0.0993,0.41501 0.28308,0.88564 0.40834,1.04584 0.21179,0.27086 0.32649,0.98383 0.59163,3.67747 0.19814,2.01289 0.763817,4.76529 1.125647,5.47697 0.21233,0.41763 0.36325,1.54051 0.36325,2.70273 0,1.16091 0.18182,2.51508 0.43694,3.25428 0.60958,1.76624 0.64645,2.70556 0.14836,3.77956 -0.50742,1.09412 -0.57874,4.01266 -0.14546,5.95313 0.20071,0.89889 0.21503,1.78934 0.0447,2.77812 -0.13789,0.80037 -0.33819,2.40896 -0.44512,3.57466 -0.10694,1.16569 -0.27195,2.24488 -0.36671,2.3982 -0.0948,0.15331 -0.24604,1.40222 -0.3362,2.77534 -0.21793,3.31903 -0.490967,4.24707 -1.660107,5.64265 -0.54102,0.64581 -1.39026,1.67603 -1.8872,2.28939 -1.01288,1.25017 -2.43273,1.97379 -4.36976,2.22703 -0.7175,0.0938 -1.42291,0.24371 -1.56759,0.33312 -0.14467,0.0894 -0.92685,0.13556 -1.73816,0.10254 -0.81132,-0.033 -2.51698,0.0695 -3.79035,0.22786 -1.27337,0.15833 -3.41649,0.29157 -4.7625,0.29608 -1.346,0.005 -3.10212,0.10932 -3.90249,0.23289 -5.42507,0.8376 -6.15953,0.87479 -8.02695,0.40646 -1.43352,-0.35951 -2.03757,-0.3956 -2.91029,-0.17388 -1.67279,0.42497 -2.70052,0.49471 -3.38838,0.2299 z m -4.19521,-3.92645 c 0.99689,0.0803 5.0853,-0.52143 5.68796,-0.8372 0.75413,-0.39514 6.04837,-0.51366 7.79116,-0.17441 2.65035,0.5159 6.34003,0.55813 8.21671,0.094 0.94589,-0.23391 1.83886,-0.5202 1.98438,-0.63622 0.29534,-0.23545 2.17699,-0.4628 5.15937,-0.62339 2.9339,-0.15797 5.11517,-0.56762 6.44167,-1.20977 1.01392,-0.49083 1.26227,-0.78162 1.77735,-2.08105 0.32931,-0.83077 0.70117,-1.64517 0.82636,-1.80976 1.00127,-1.31649 1.37353,-7.20687 0.59954,-9.48662 -0.43166,-1.27143 -0.3705,-6.60579 0.0895,-7.80891 0.39574,-1.03497 0.34711,-3.17872 -0.0861,-3.79726 -0.21335,-0.3046 -0.38791,-0.76964 -0.38791,-1.03342 0,-0.26378 -0.20273,-0.789 -0.45051,-1.16716 -0.36711,-0.56028 -0.45282,-1.3591 -0.46302,-4.31533 -0.008,-2.32755 -0.12172,-3.76099 -0.31721,-3.99948 -0.16759,-0.20445 -0.39172,-1.20516 -0.49807,-2.22381 -0.12001,-1.14947 -0.48119,-2.46403 -0.95207,-3.4652 -0.90349,-1.92096 -0.98522,-3.68323 -0.2463,-5.31067 0.27543,-0.60662 0.44263,-1.16111 0.37156,-1.23218 -0.0711,-0.0711 0.0612,-0.49748 0.29395,-0.94757 0.34284,-0.66298 0.58513,-0.81632 1.27628,-0.80771 1.66167,0.0207 4.2509,1.47441 6.398647,3.59249 0.16498,0.1627 0.56294,0.37929 0.88436,0.4813 0.72302,0.22948 2.16905,1.42266 2.16905,1.78977 0,0.149 0.32742,0.68867 0.7276,1.19927 2.59579,3.31203 4.46667,4.22389 7.4947,3.65287 2.94727,-0.55578 3.70888,-0.92138 5.10765,-2.45185 0.7228,-0.79087 1.9376,-1.83673 2.69956,-2.32414 1.95819,-1.25265 4.23388,-3.63948 4.46961,-4.68792 0.30524,-1.35757 0.37523,-5.06629 0.10194,-5.40177 -0.13571,-0.16659 -0.20082,-0.71963 -0.14469,-1.22898 0.0962,-0.87248 -0.0793,-1.11146 -3.03078,-4.12887 -1.72305,-1.76154 -3.30019,-3.20279 -3.50475,-3.20279 -0.20455,0 -1.53145,-1.1316 -2.94865,-2.51466 -1.69074,-1.65002 -3.23951,-2.88053 -4.50431,-3.57871 -1.06017,-0.58523 -2.20501,-1.35658 -2.54409,-1.7141 -0.33908,-0.35753 -0.72151,-0.65211 -0.84984,-0.65463 -0.31607,-0.006 -2.01562,-1.82724 -2.01562,-2.15972 0,-0.40876 -2.84893,-3.30408 -4.70823,-4.78491 -1.02202,-0.81398 -1.912857,-1.79961 -2.305687,-2.55103 -0.80454,-1.53896 -1.31381,-2.13621 -2.64337,-3.10003 -0.58209,-0.42197 -1.14982,-0.91009 -1.26164,-1.08471 -0.48437,-0.75643 -4.42865,-3.25609 -5.51203,-3.49321 -0.64011,-0.1401 -1.99727,-0.43808 -3.01592,-0.66217 -2.10057,-0.4621 -4.0228,-0.24115 -5.15937,0.59303 -0.3638,0.26702 -1.2919,1.54617 -2.06245,2.84256 -1.22273,2.05717 -1.3869,2.49904 -1.29025,3.47282 0.064,0.64471 -0.0427,1.41146 -0.25266,1.81619 -0.19986,0.38524 -0.36743,0.95471 -0.37237,1.2655 -0.005,0.31079 -0.23902,1.04132 -0.52019,1.6234 -0.28116,0.58208 -0.51525,1.30846 -0.52019,1.61417 -0.0187,1.1576 -0.67031,2.36794 -2.00495,3.72408 -0.75929,0.77152 -1.56753,1.79103 -1.7961,2.26559 -0.55949,1.16162 -2.09109,2.32235 -3.29395,2.49632 -0.54107,0.0782 -1.93626,0.4374 -3.10043,0.79811 -1.82459,0.56533 -2.37224,0.62724 -3.96875,0.44865 -1.01865,-0.11395 -2.32834,-0.23068 -2.91042,-0.25941 -0.58208,-0.0287 -1.30377,-0.0646 -1.60375,-0.0798 -0.29999,-0.0151 -0.7862,-0.25185 -1.08048,-0.52601 -0.29428,-0.27416 -0.94181,-0.58616 -1.43895,-0.69333 -0.49715,-0.10716 -1.24638,-0.36994 -1.66498,-0.58395 -0.41858,-0.21401 -1.18781,-0.44204 -1.70937,-0.50673 -0.99089,-0.1229 -1.89518,-0.74327 -1.89518,-1.30015 0,-0.17909 -0.17593,-0.66473 -0.39096,-1.0792 -0.21503,-0.41447 -0.52487,-1.41035 -0.68853,-2.21306 -0.2809,-1.37768 -1.02767,-3.08843 -1.7343,-3.97302 -0.17437,-0.21828 -0.30933,-0.69453 -0.29992,-1.05833 0.0177,-0.6846 -0.21247,-3.02642 -0.48417,-4.9258 -0.20537,-1.43568 -2.12829,-3.91138 -3.48133,-4.48212 -0.98537,-0.41564 -1.31852,-0.40784 -4.29787,0.10068 -2.27298,0.38796 -3.16871,0.89572 -5.1565,2.92307 -1.01706,1.0373 -2.22449,2.06409 -2.68319,2.28176 -0.45869,0.21766 -0.90192,0.57276 -0.98494,0.78911 -0.083,0.21635 -0.96414,0.91461 -1.95805,1.5517 -1.86056,1.19259 -3.64749,3.0021 -4.59759,4.65571 -0.29779,0.51829 -1.13261,1.4186 -1.85516,2.00068 -2.50211,2.01569 -2.84515,2.38678 -3.30189,3.57188 -0.25237,0.65484 -0.79488,1.6047 -1.20556,2.1108 -0.41069,0.5061 -0.7467,1.05102 -0.7467,1.21094 0,0.15992 -0.54433,0.87693 -1.20963,1.59336 -0.66529,0.71643 -1.45234,1.77012 -1.74901,2.34153 -0.29666,0.5714 -1.11222,1.64461 -1.81236,2.38489 -0.70013,0.74029 -1.3559097,1.70153 -1.4572897,2.13608 -0.10138,0.43456 -0.70602,1.69354 -1.34364,2.79773 -0.75555,1.30841 -1.15932,2.32459 -1.15932,2.91769 0,0.50054 -0.16685,1.14828 -0.37078,1.43943 -0.20393,0.29115 -0.40391,0.88319 -0.44439,1.31564 -0.0914,0.97614 0.64552,3.51179 1.52494,5.24724 0.43963,0.86757 0.61414,1.55334 0.51783,2.03488 -0.12759,0.63793 0.15688,1.03542 2.3374697,3.2662 1.36551,1.39694 2.80342,2.66181 3.19537,2.81083 0.63839,0.24271 0.86402,0.14631 2.16586,-0.92544 0.79928,-0.65802 1.60357,-1.19639 1.78732,-1.19639 0.18375,0 0.4958,-0.19486 0.69346,-0.43302 0.19766,-0.23816 0.83732,-0.65878 1.42146,-0.93469 1.19898,-0.56633 3.88156,-2.0463 6.03349,-3.32864 0.79365,-0.47294 1.6964,-0.8599 2.00611,-0.8599 0.30971,0 0.56311,-0.12428 0.56311,-0.27618 0,-0.1519 0.14882,-0.25073 0.33073,-0.21962 0.1819,0.0311 0.86651,-0.0219 1.52135,-0.11783 3.66518,-0.53685 4.65991,-0.41171 6.43456,0.80945 1.18813,0.81759 1.76752,1.81586 1.76752,3.04542 0,0.48744 0.12575,1.01201 0.27944,1.1657 0.31327,0.31327 0.49532,4.05349 0.61615,12.65869 0.0743,5.28778 0.14663,6.07524 0.79036,8.59896 0.38974,1.52797 0.95565,3.23224 1.25759,3.78726 0.30193,0.55503 0.54666,1.448 0.54385,1.98438 -0.003,0.53638 0.2887,1.8581 0.6478,2.93716 0.68422,2.05601 0.68932,2.36283 0.1094,6.58799 -0.30868,2.24902 -0.11819,2.71047 1.65815,4.0168 0.7482,0.55023 1.38628,0.79474 2.07398,0.79474 0.54631,0 1.68372,0.18688 2.52756,0.41528 0.84385,0.22841 2.07005,0.41282 2.72489,0.40981 0.65484,-0.003 1.60734,0.099 2.11667,0.22679 0.50932,0.12774 1.52135,0.16204 2.24895,0.0762 0.72761,-0.0858 1.62058,-0.13205 1.98438,-0.10273 z m -6.87917,-1.49189 c -0.79831,-0.10157 -3.71554,-1.11504 -4.13951,-1.43809 -0.16668,-0.127 -0.38348,-0.65963 -0.48178,-1.18361 -0.0983,-0.52399 -0.40766,-1.26388 -0.68747,-1.64422 -0.27982,-0.38034 -0.56709,-1.27531 -0.63838,-1.98883 -0.0713,-0.71352 -0.29553,-1.48743 -0.49829,-1.71979 -0.20276,-0.23237 -0.51605,-0.89873 -0.69619,-1.48082 -0.18015,-0.58208 -0.55444,-1.57261 -0.83178,-2.20118 -0.39757,-0.9011 -0.4699,-1.48876 -0.34193,-2.77812 0.0936,-0.94354 0.0431,-1.94209 -0.11938,-2.36059 -0.34806,-0.89618 -0.13444,-1.52365 0.51873,-1.52365 0.60968,0 1.3014,1.26906 1.3014,2.38761 0,0.45451 0.29766,1.71309 0.66146,2.79683 0.3638,1.08375 0.66146,2.09495 0.66146,2.24712 0,0.15217 0.3146,0.68913 0.69912,1.19326 0.90495,1.18646 1.52351,2.26262 2.38035,4.14133 0.38163,0.83674 0.80138,1.52135 0.93278,1.52135 0.13141,0 0.47125,0.39375 0.75519,0.87501 0.40732,0.69035 0.79973,0.94765 1.85955,1.21927 1.32004,0.33832 2.56461,1.27255 2.17186,1.63031 -0.24094,0.21948 -2.58319,0.42438 -3.50719,0.30681 z m 20.35084,-3.78606 c -0.20614,-0.13048 -0.85104,-0.24068 -1.43313,-0.2449 -1.41781,-0.0103 -2.24896,-0.25468 -2.24896,-0.66135 0,-0.47641 1.71165,-1.72034 2.36719,-1.72034 0.30273,0 0.75715,-0.11271 1.00984,-0.25046 1.23776,-0.67479 3.17343,-1.08374 3.87219,-0.81807 0.53444,0.2032 0.85857,0.17845 1.29581,-0.099 0.32071,-0.20346 1.32745,-0.45244 2.23722,-0.55329 0.90976,-0.10086 1.72046,-0.29072 1.80155,-0.42193 0.0811,-0.1312 0.73747,-0.23855 1.45862,-0.23855 1.11816,0 1.45341,0.13034 2.27727,0.88535 1.41892,1.30034 1.16533,1.69457 -1.63531,2.54234 -0.58209,0.1762 -1.47286,0.50775 -1.9795,0.73678 -1.01543,0.45904 -1.95267,0.5685 -5.28023,0.61669 -1.22796,0.0178 -2.48806,0.12944 -2.80021,0.24812 -0.31216,0.11868 -0.73622,0.10903 -0.94235,-0.0215 z m -56.92576,-39.17894 c -0.17186,-1.16965 0.19431,-1.90673 1.21264,-2.44098 0.45878,-0.24071 1.42947,-0.91268 2.15707,-1.49329 1.47667,-1.17833 5.00279,-3.00319 6.59847,-3.41487 1.30849,-0.33759 2.19566,-0.12571 2.41892,0.57773 0.17939,0.56521 -0.34429,1.12158 -1.74134,1.85006 -1.91263,0.99732 -3.70417,2.12938 -3.70417,2.34063 0,0.13163 -0.10117,0.23932 -0.22483,0.23932 -0.12365,0 -1.31686,0.65834 -2.65156,1.46297 -1.33471,0.80464 -2.7661,1.53084 -3.18087,1.6138 -0.69232,0.13846 -0.7648,0.0782 -0.88433,-0.73537 z m 96.106167,-1.15077 c -0.3638,-0.20797 -0.81493,-0.38235 -1.00251,-0.3875 -0.18758,-0.005 -0.82209,-0.48563 -1.41002,-1.06771 -0.58793,-0.58208 -1.17191,-1.05833 -1.29775,-1.05833 -0.12583,0 -0.8843,-0.87099 -1.6855,-1.93554 -0.8012,-1.06454 -1.85979,-2.1526 -2.35243,-2.4179 -0.49264,-0.2653 -1.10576,-0.7949 -1.36249,-1.17689 -0.25673,-0.38199 -0.93123,-0.92043 -1.49887,-1.19654 -1.094097,-0.53218 -1.182987,-0.69888 -0.777107,-1.45728 0.16073,-0.30033 0.47858,-0.44202 0.859897,-0.38333 2.49515,0.38409 3.55293,0.8351 4.97053,2.11934 0.36381,0.32958 1.07949,0.77385 1.59042,0.98727 1.03137,0.43083 4.23054,4.00003 5.25485,5.86265 1.06638,1.93913 0.37898,3.06527 -1.28902,2.11176 z M 55.146733,215.09505 c -0.58208,-0.15602 -1.35599,-0.49159 -1.71979,-0.74572 -0.57069,-0.39865 -1.59857,-0.99367 -3.83324,-2.21899 -0.28926,-0.15862 -0.68297,-0.49675 -0.8749,-0.75141 -0.19192,-0.25466 -0.52374,-0.46302 -0.73737,-0.46302 -0.21363,0 -0.51247,-0.32743 -0.66408,-0.72761 -0.15161,-0.40018 -0.49217,-0.96573 -0.75679,-1.25677 -0.26463,-0.29104 -0.56244,-0.82682 -0.66181,-1.19062 -0.45759,-1.67526 -2.19025,-5.25561 -2.97734,-6.15233 -0.90511,-1.03118 -1.09673,-1.66602 -0.55715,-1.84588 0.51799,-0.17266 2.86233,2.44163 3.72395,4.15277 0.44214,0.87806 1.08665,2.15873 1.43225,2.84592 1.13336,2.25358 3.94644,4.68885 5.42784,4.69887 0.3916,0.003 0.78558,0.12388 0.87551,0.2694 0.0899,0.14552 0.37617,0.26458 0.63607,0.26458 0.2599,0 0.68199,0.23143 0.93797,0.51428 0.40486,0.44738 0.86632,0.52029 3.54673,0.56041 3.89205,0.0582 4.4678,0.0423 5.54919,-0.15331 0.79587,-0.144 0.87206,-0.10318 0.79375,0.42531 -0.15553,1.04965 -1.30765,1.62874 -3.44057,1.72933 -1.06574,0.0503 -2.77116,0.14473 -3.7898,0.20992 -1.01865,0.0652 -2.32834,-0.009 -2.91042,-0.16513 z m 24.16146,-13.08958 c -0.47775,-1.13618 -0.3123,-3.60731 0.3378,-5.04525 0.31277,-0.69182 1.06011,-1.80549 1.66075,-2.47483 0.60064,-0.66934 1.46236,-1.6516 1.91494,-2.18281 0.98828,-1.16001 1.9236,-1.26195 2.93907,-0.32035 l 0.69614,0.64549 -0.64154,0.78392 c -0.35285,0.43115 -1.50382,1.83489 -2.55772,3.11943 -1.50748,1.83738 -2.0436,2.7317 -2.51354,4.19299 -0.675,2.09891 -1.30675,2.53985 -1.8359,1.28141 z"
       id="path10901"
       inkscape:connector-curvature="0" />
  </g>
</svg>
