<?xml version="1.0" encoding="UTF-8" standalone="no"?>
<!-- Created with Inkscape (http://www.inkscape.org/) -->

<svg
   xmlns:dc="http://purl.org/dc/elements/1.1/"
   xmlns:cc="http://creativecommons.org/ns#"
   xmlns:rdf="http://www.w3.org/1999/02/22-rdf-syntax-ns#"
   xmlns:svg="http://www.w3.org/2000/svg"
   xmlns="http://www.w3.org/2000/svg"
   xmlns:sodipodi="http://sodipodi.sourceforge.net/DTD/sodipodi-0.dtd"
   xmlns:inkscape="http://www.inkscape.org/namespaces/inkscape"
   width="500"
   height="500"
   viewBox="0 0 132.29166 132.29167"
   version="1.1"
   id="svg10195"
   inkscape:version="0.92.2 5c3e80d, 2017-08-06"
   sodipodi:docname="tea.svg">
  <defs
     id="defs10189" />
  <sodipodi:namedview
     id="base"
     pagecolor="#ffffff"
     bordercolor="#666666"
     borderopacity="1.0"
     inkscape:pageopacity="0.0"
     inkscape:pageshadow="2"
     inkscape:zoom="0.55880044"
     inkscape:cx="125.71337"
     inkscape:cy="-38.209197"
     inkscape:document-units="mm"
     inkscape:current-layer="layer1"
     showgrid="false"
     units="px"
     inkscape:window-width="1920"
     inkscape:window-height="1035"
     inkscape:window-x="0"
     inkscape:window-y="1"
     inkscape:window-maximized="1" />
  <metadata
     id="metadata10192">
    <rdf:RDF>
      <cc:Work
         rdf:about="">
        <dc:format>image/svg+xml</dc:format>
        <dc:type
           rdf:resource="http://purl.org/dc/dcmitype/StillImage" />
        <dc:title></dc:title>
      </cc:Work>
    </rdf:RDF>
  </metadata>
  <g
     inkscape:label="Layer 1"
     inkscape:groupmode="layer"
     id="layer1"
     transform="translate(0,-164.70832)">
    <path
       id="path11658"
       style="fill:#ffffff;stroke-width:0.12861259;fill-opacity:1"
       d="m 108.88114,166.51563 c -0.514,0.022 -1.53654,0.3415 -2.38003,0.75774 -1.59122,0.78523 -5.40906,4.25424 -6.909847,6.27852 -1.320994,1.78177 -2.157344,3.59608 -2.157344,4.68017 0,0.29309 0.06937,0.60239 0.154299,0.68727 0.08489,0.0849 0.189754,0.1543 0.233047,0.1543 0.257807,0 1.334738,-0.64938 2.295245,-1.38397 0.61129,-0.4675 1.69033,-1.29087 2.39792,-1.82971 0.7076,-0.53884 2.4305,-1.74747 3.82861,-2.68598 2.57006,-1.72517 3.94226,-2.84809 4.28115,-3.50343 0.61261,-1.18468 -0.23359,-2.89549 -1.55579,-3.14549 -0.0506,-0.01 -0.11384,-0.0127 -0.18726,-0.009 z m -29.80352,6.56038 c -0.33323,-0.004 -0.805406,0.0559 -1.653755,0.19273 -0.913665,0.14724 -2.703049,0.42157 -3.976313,0.60965 -1.273273,0.18807 -3.228101,0.52439 -4.34407,0.74737 l -2.029037,0.40543 -0.192355,-0.29389 c -0.135657,-0.20705 -0.316977,-0.29372 -0.613988,-0.29372 -0.49227,0 -0.730223,0.194 -0.730223,0.59571 0,0.33763 0.247995,0.25766 -3.12382,1.00925 -4.303029,0.95915 -7.999152,2.04444 -10.047043,2.95011 -0.589053,0.26051 -0.719307,0.37469 -0.719307,0.63113 0,0.27218 -0.59317,1.75888 -0.701778,1.75888 -0.02196,0 0.09816,-0.47452 0.266775,-1.05446 0.168604,-0.57994 0.30495,-1.14423 0.303131,-1.25397 -0.0018,-0.10974 -0.685515,1.13158 -1.519427,2.75851 -1.473115,2.87401 -2.834859,5.28947 -6.053961,10.73921 -0.856563,1.45011 -2.092121,3.69357 -2.745703,4.98538 -1.023789,2.02351 -1.191008,2.4438 -1.207815,3.03621 -0.01073,0.3782 -0.109942,0.86287 -0.220614,1.07688 -0.270677,0.52342 -0.407395,2.71991 -0.726461,11.67253 -0.143699,4.032 -0.403013,11.0639 -0.576117,15.62644 -0.694677,18.30944 -1.042352,32.72856 -0.846282,35.09221 0.06488,0.78215 0.130554,0.98789 0.379808,1.18972 0.165745,0.13422 0.431728,0.24398 0.591192,0.24398 0.386741,0 0.940642,-0.44983 0.991347,-0.80521 0.03214,-0.22529 0.394358,-0.4599 1.71272,-1.10928 1.571461,-0.77404 3.808153,-1.6821 4.595012,-1.86552 0.306454,-0.0714 0.360771,-0.0369 0.429357,0.27356 0.256104,1.15938 0.877861,2.65702 2.099877,5.0579 1.570058,3.08468 1.872544,3.52496 2.554669,3.71708 0.56342,0.1587 0.969012,-0.0209 3.889654,-1.72119 8.483806,-4.93914 24.159897,-12.32018 31.381537,-14.77601 1.948039,-0.66246 5.01483,-1.50398 5.481227,-1.50398 0.168467,0 0.306338,-0.058 0.306338,-0.12868 0,-0.0707 0.07966,-0.12848 0.177093,-0.12848 0.361602,0 0.531244,-0.43758 0.618316,-1.59479 0.04842,-0.64379 0.126396,-1.38063 0.173143,-1.63755 0.05265,-0.28908 0.03124,-0.50036 -0.05595,-0.55426 -0.09241,-0.0572 -0.141041,-0.78152 -0.141308,-2.10515 -3.58e-4,-2.40348 -0.18731,-7.01852 -0.456483,-11.27803 -0.201377,-3.18675 -0.767341,-10.18399 -0.91542,-11.31741 l -0.08407,-0.64262 1.210447,1.14131 c 1.493383,1.40811 3.936006,3.04468 6.484636,4.34463 1.060451,0.54089 4.069521,1.95081 6.686791,3.13324 7.0342,3.17792 9.58309,4.4942 12.37337,6.38931 3.15606,2.14353 4.92575,4.18481 5.77514,6.66173 0.33356,0.97268 0.34365,3.80666 0.0179,5.01588 -0.32909,1.22163 -1.28226,3.07219 -2.13473,4.14494 -3.02614,3.80808 -9.01476,6.88415 -19.066,9.79289 -1.103,0.3192 -3.47603,0.96397 -5.273234,1.43296 -12.209862,3.18614 -15.690579,4.24012 -19.72992,5.97369 -4.270173,1.83264 -6.867637,4.11459 -7.684913,6.75198 -0.410095,1.32338 -0.378379,3.11281 0.08003,4.52398 0.186906,0.57531 0.425631,1.11718 0.530527,1.20424 0.16141,0.13396 -0.04621,0.3854 -1.351175,1.63567 -0.848102,0.81253 -1.542042,1.56825 -1.542042,1.67937 0,0.11113 0.10135,0.31623 0.225136,0.45592 0.151322,0.17076 0.176258,0.27119 0.07608,0.30633 -0.492941,0.17307 -1.424172,0.94831 -1.883972,1.56841 -0.520247,0.70165 -0.762775,1.42843 -0.476642,1.42843 0.07773,0 0.446,0.31189 0.818205,0.69312 1.243826,1.274 3.390319,2.06978 7.028735,2.60573 1.455539,0.2144 2.623759,0.23804 12.346806,0.24906 10.036339,0.0114 11.694907,0.0524 13.470786,0.39054 0.03032,7.3e-4 0.06064,0.002 0.09096,0.003 l 0.10758,0.004 c 0.03813,0.002 0.07626,0.003 0.114359,0.005 0.03749,0.002 0.07497,0.004 0.112467,0.006 l 0.119634,0.006 c 0.04061,0.002 0.08122,0.004 0.121893,0.004 0.04272,9.2e-4 0.08544,0.002 0.12811,0.004 0.0402,0.002 0.0805,0.003 0.12076,0.005 0.0389,0.002 0.0777,0.004 0.11662,0.004 l 0.13075,0.002 c 0.0439,3.6e-4 0.0877,1e-4 0.13168,-7.3e-4 0.0493,-3.7e-4 0.0986,-9.2e-4 0.1479,-0.002 0.0486,-7.2e-4 0.0971,-9.2e-4 0.14563,-0.002 0.006,-1.1e-4 0.0123,-3e-4 0.0185,-3.7e-4 0.21435,-0.0587 0.44734,-0.15819 0.54071,-0.23569 0.24341,-0.20201 0.72164,-1.67552 1.29617,-3.99365 1.12906,-4.55558 2.423,-8.53653 3.48159,-10.71151 0.65916,-1.35434 0.70307,-1.63529 0.25602,-1.63529 -0.46116,0 -0.99939,0.52024 -1.75152,1.69275 -1.21142,1.8885 -1.85234,3.61458 -3.54055,9.53742 l -1.0198,3.57786 -0.546537,-0.0731 c -1.84519,-0.24695 -1.701117,-0.19628 -1.543162,-0.54297 0.106624,-0.23405 0.104226,-0.42274 -0.0094,-0.73682 -0.128886,-0.35642 -0.111824,-0.54073 0.1087,-1.18332 0.895464,-2.60921 3.531379,-7.04848 7.412309,-12.48321 1.66316,-2.32903 1.73255,-2.80595 0.44386,-3.05072 -0.23996,-0.0456 -0.51103,-0.18391 -0.6023,-0.30746 -0.13297,-0.17998 -0.19836,-0.19266 -0.32894,-0.0639 -0.22262,0.21958 -1.03103,0.20253 -1.4793,-0.0312 -0.20262,-0.10567 -0.60177,-0.19256 -0.88697,-0.19293 -0.28522,-3.6e-4 -2.31099,-0.15605 -4.501567,-0.34571 -3.200279,-0.27706 -4.76619,-0.34608 -7.969778,-0.35173 -5.162486,-0.009 -7.042884,0.25037 -9.850545,1.35985 -0.930993,0.36789 -1.917508,1.01984 -1.917508,1.26716 0,0.0611 0.390663,-9.2e-4 0.86814,-0.13848 2.313113,-0.66482 2.775054,-0.7695 4.211997,-0.95573 1.817655,-0.23556 6.539019,-0.26979 9.260104,-0.0671 3.072893,0.22892 9.203707,0.86787 9.305697,0.96987 0.0353,0.0354 -0.0847,0.22275 -0.26696,0.41655 -0.37231,0.39593 -1.12906,1.56269 -1.12906,1.74079 0,0.0639 0.25548,-0.22229 0.56764,-0.63603 0.31216,-0.41375 0.74023,-0.91671 0.95141,-1.11758 0.33977,-0.32319 0.41886,-0.34704 0.68651,-0.20761 0.16636,0.0866 0.32206,0.17409 0.34609,0.19443 0.0241,0.0203 -0.18213,0.37437 -0.45818,0.78655 -0.27604,0.4122 -0.68152,1.07249 -0.90092,1.46743 -0.4012,0.7222 -1.2529,2.53609 -1.13585,2.41903 0.0345,-0.0345 0.63854,-0.92805 1.34214,-1.98571 1.67288,-2.51469 2.07841,-2.98249 2.44333,-2.81843 0.26207,0.11782 0.21138,0.21939 -1.05596,2.1174 -3.37881,5.0602 -5.32518,8.94272 -6.000837,11.97001 l -0.15994,0.71686 -0.652797,-0.16937 c -2.30703,-0.59843 -7.645094,-0.88195 -13.129793,-0.69745 -5.305466,0.17849 -8.220706,0.183 -8.115405,0.0126 0.144615,-0.23399 0.68851,-2.21934 0.57687,-2.10572 -0.06027,0.0614 -0.276927,0.57468 -0.481162,1.14056 l -0.371331,1.02902 -0.794472,0.0382 c -0.437006,0.021 -0.794657,-0.004 -0.794657,-0.0545 0,-0.0509 0.586417,-1.01065 1.303133,-2.13266 0.716726,-1.12201 1.266676,-2.07664 1.22195,-2.12135 -0.100587,-0.10059 0.08444,-0.34514 -1.62474,2.1481 -0.800104,1.16716 -1.469807,2.14125 -1.488146,2.16469 -0.04098,0.0524 -5.590818,-0.33887 -6.259318,-0.44123 -0.438355,-0.0672 -0.468436,-0.0971 -0.339303,-0.33836 0.262586,-0.49064 1.190822,-1.40508 1.67938,-1.65432 l 0.484929,-0.24736 1.771128,0.65563 c 1.817453,0.67284 2.157905,0.70027 2.157905,0.17388 0,-0.32453 -1.594633,-0.82517 -2.935233,-0.92164 l -1.006048,-0.0726 0.702531,-0.72043 c 2.0186,-2.07029 6.481156,-7.23907 7.474478,-8.65724 0.161236,-0.23019 0.207955,-0.2317 1.070104,-0.0356 1.519449,0.34559 1.513055,0.29629 0.265829,2.06539 -0.594887,0.84381 -1.71206,2.43115 -2.4827,3.52756 -0.770621,1.09642 -1.766461,2.49373 -2.21292,3.10498 -0.760212,1.04077 -0.945776,1.40192 -0.715339,1.39263 0.113616,-0.005 1.581769,-1.8541 3.6404,-4.58634 1.013518,-1.34516 1.534177,-1.93587 1.671653,-1.89642 0.296571,0.0851 0.547718,-0.16496 1.199146,-1.19387 0.32328,-0.51061 0.762922,-1.08448 0.977024,-1.27526 0.499022,-0.44463 0.491736,-0.72758 -0.02922,-1.12492 -0.586472,-0.44732 -1.063728,-0.61633 -1.998709,-0.70781 l -0.809733,-0.0793 0.413347,-0.57875 c 0.517508,-0.72465 0.315231,-0.5254 -1.109474,1.09326 -1.201994,1.36564 -4.573543,4.82298 -4.703338,4.82298 -0.04245,0 -0.181495,-0.45675 -0.308974,-1.0149 -0.51127,-2.23855 -0.03197,-3.89913 1.594972,-5.52607 2.826799,-2.82679 7.712908,-4.72316 21.423422,-8.31492 7.463618,-1.95526 10.897378,-2.96693 14.443478,-4.2557 8.39518,-3.05102 13.21636,-6.4695 15.40111,-10.91951 2.29821,-4.68104 1.6194,-8.94483 -2.02998,-12.74959 -2.8034,-2.92277 -6.46252,-5.03901 -15.62756,-9.03799 -6.981996,-3.04644 -8.994082,-4.04732 -11.596047,-5.76854 -1.541968,-1.02002 -3.071349,-2.37168 -3.684483,-3.25644 -0.360077,-0.51958 -0.371561,-0.59657 -0.968929,-6.46354 -0.878228,-8.62538 -0.973404,-9.41231 -2.566722,-21.20733 -0.916118,-6.78179 -1.159602,-8.92613 -1.080652,-9.51896 l 0.08122,-0.60927 -1.412982,-1.46141 c -2.222834,-2.29911 -3.936594,-4.75037 -4.889481,-6.99387 -0.292124,-0.68777 -0.375319,-1.04561 -0.32102,-1.3802 0.09744,-0.60045 -0.20541,-1.04749 -0.837995,-1.23702 -0.151239,-0.0453 -0.301017,-0.0705 -0.500952,-0.0727 z m 0.112091,2.33217 0.301431,0.94236 c 0.798754,2.49647 2.854426,5.88123 4.739519,7.80398 0.980579,1.00017 1.253427,1.20872 1.628131,1.24361 l 0.450079,0.0418 0.08857,1.86494 c 0.240764,5.07612 0.775454,11.53858 1.904892,23.02159 1.447179,14.71363 1.82688,19.16143 2.250967,26.36565 0.245019,4.16231 0.510232,11.61863 0.421442,11.85 -0.03868,0.10077 -0.409902,0.28875 -0.824801,0.41769 -1.876383,0.58312 -4.313577,2.1082 -3.734226,2.33668 0.148235,0.0584 0.6961,-0.0816 1.479492,-0.37829 1.279832,-0.48469 2.500129,-0.84637 2.865332,-0.84892 0.1648,-9.2e-4 0.225228,0.19731 0.295036,0.96761 0.04833,0.53301 0.115086,1.03936 0.148263,1.12529 0.04493,0.11649 -0.196057,0.14581 -0.946695,0.11511 -2.850953,-0.11665 -10.512659,2.54879 -20.474835,7.12293 -3.637046,1.66996 -11.544579,5.62075 -14.51093,7.2501 v -2e-4 c -1.296307,0.71204 -2.385411,1.29448 -2.420159,1.29448 -0.03482,0 -0.03473,-0.10115 0,-0.22495 0.03473,-0.12379 0.164616,-0.71118 0.288632,-1.30521 0.199567,-0.956 0.268806,-1.10364 0.603056,-1.286 0.207688,-0.11333 0.993249,-0.57597 1.745687,-1.0279 0.752448,-0.45191 2.262167,-1.30411 3.354984,-1.89377 1.859716,-1.00346 2.001777,-1.05867 2.218571,-0.86248 0.127387,0.11529 0.231723,0.25359 0.231723,0.30728 0,0.0537 -0.737912,0.48708 -1.639808,0.96308 -1.751191,0.92423 -3.510293,2.00439 -3.766061,2.31258 -0.349455,0.42107 0.354895,0.13266 3.494582,-1.43107 4.000909,-1.99265 6.719283,-3.21402 12.666897,-5.6911 2.537432,-1.0568 5.06924,-2.13047 5.626292,-2.38587 0.975545,-0.44724 1.010219,-0.47799 0.938601,-0.83611 -0.07231,-0.36159 -0.03785,-0.39009 1.259996,-1.03505 2.416328,-1.20082 4.586636,-2.70162 6.01666,-4.16057 0.5365,-0.54734 0.610783,-0.6903 0.610783,-1.17352 0,-0.39598 -0.0758,-0.61892 -0.270533,-0.79523 -0.244302,-0.22117 -0.488347,-0.24492 -2.507948,-0.24492 -1.230486,0 -2.237185,-0.0142 -2.237222,-0.0312 -3.7e-5,-0.0171 0.544998,-0.2859 1.211209,-0.59723 1.606788,-0.75085 3.624763,-1.94629 3.724615,-2.2065 0.121508,-0.31665 0.09576,-0.81777 -0.0565,-1.10231 -0.238817,-0.44622 -0.665183,-0.50785 -2.065779,-0.29843 -1.313019,0.19634 -1.720771,0.17178 -1.095536,-0.066 2.283234,-0.86809 5.566388,-2.39566 6.030791,-2.80599 0.317124,-0.28019 0.2985,-1.11448 -0.03225,-1.4452 -0.225504,-0.22551 -0.427726,-0.25694 -1.639808,-0.25585 -1.175194,9.2e-4 -2.744385,0.13292 -5.342005,0.44896 l -0.542022,0.066 0.450273,-0.20423 c 0.247582,-0.11229 1.891423,-0.81618 3.653208,-1.56426 1.761784,-0.74808 3.310083,-1.46681 3.440512,-1.59724 0.333689,-0.33368 0.294889,-0.83417 -0.09495,-1.22401 -0.299548,-0.29955 -0.398472,-0.32447 -1.006425,-0.25302 -0.370761,0.0436 -3.187298,0.71637 -6.259124,1.49493 -5.15859,1.30746 -8.747117,2.18818 -15.937473,3.91207 -2.188261,0.52464 -2.77295,0.70889 -2.806742,0.88434 -0.05696,0.29565 0.326697,0.28972 2.430513,-0.0373 2.269903,-0.35285 3.916244,-0.67448 7.320372,-1.4305 4.551419,-1.01083 6.988466,-1.52542 7.029663,-1.4842 0.02086,0.0209 -0.959125,0.462 -2.177685,0.98023 -3.070908,1.30603 -6.347024,2.90501 -6.723519,3.28151 -0.363972,0.36396 -0.40234,0.7878 -0.109086,1.2065 0.402653,0.57486 0.595834,0.56022 3.985547,-0.3022 3.166984,-0.80573 7.224388,-1.6802 7.325829,-1.57876 0.02876,0.0288 -0.423775,0.24573 -1.005845,0.48191 -1.907024,0.7738 -3.934307,1.77564 -4.267959,2.10931 -0.401228,0.40121 -0.42609,0.95059 -0.06385,1.41109 0.254859,0.324 0.314882,0.33606 1.832723,0.37096 l 1.569357,0.036 -1.157517,0.5539 c -1.777312,0.85026 -3.649257,1.94075 -3.793192,2.20971 -0.256273,0.47884 -0.155043,1.12031 0.22419,1.42089 0.323895,0.25672 0.44577,0.27302 1.446893,0.19405 0.601264,-0.0474 1.990284,-0.1977 3.086702,-0.33384 1.096427,-0.13614 2.167064,-0.24616 2.379273,-0.24436 l 0.385839,0.004 -0.385839,0.31744 c -0.576438,0.47421 -2.292826,1.49994 -3.60103,2.15188 -1.630373,0.81249 -3.177045,1.4576 -7.523835,3.13851 -4.315515,1.66882 -6.203153,2.49505 -7.81435,3.42036 -0.618371,0.35512 -1.934542,1.00735 -2.92486,1.44953 -0.990318,0.44216 -2.856815,1.32187 -4.147765,1.95481 -1.29095,0.63293 -2.346446,1.0875 -2.345352,1.01019 0.0055,-0.4052 0.179647,-0.71931 0.399969,-0.71931 0.133792,0 0.922816,-0.41157 1.753405,-0.91447 1.480962,-0.89671 5.066548,-2.70596 6.719008,-3.39041 1.763585,-0.73049 5.234426,-2.51809 5.756105,-2.96462 0.631004,-0.54011 0.73795,-1.01828 0.237007,-1.05973 -0.169909,-0.0141 -0.792139,0.19741 -1.382653,0.47004 -0.590514,0.27265 -2.827571,1.19969 -4.971427,2.05995 -4.349509,1.74529 -5.723516,2.35499 -6.855785,3.0428 -0.424776,0.25804 -0.790623,0.44847 -0.813114,0.42314 -0.02251,-0.0254 0.233405,-0.89815 0.568766,-1.93956 0.491489,-1.52622 0.68795,-1.96653 1.013012,-2.27018 0.221801,-0.2072 0.40336,-0.4456 0.40336,-0.52978 0,-0.0842 -0.691065,-2.47718 -1.535628,-5.31789 -5.431941,-18.27056 -7.856281,-27.91478 -10.092246,-40.14755 -0.445262,-2.43599 -1.233438,-7.56394 -1.233438,-8.02497 0,-0.14946 0.119514,-0.27263 0.310856,-0.32065 0.218109,-0.0548 0.37073,-0.24116 0.511688,-0.62491 0.110472,-0.30077 0.785538,-2.13843 1.500207,-4.08371 3.710587,-10.09989 4.731041,-13.05785 5.33711,-15.47063 0.192584,-0.7667 0.25495,-0.86582 0.617939,-0.98324 1.960313,-0.63409 11.199718,-2.70676 12.075143,-2.70859 l 0.353811,-7.3e-4 1.93e-4,2.47573 c 2.94e-4,3.27325 0.220211,6.66373 0.447442,6.89685 0.249741,0.25623 0.82334,0.217 1.116824,-0.0764 0.243457,-0.24345 0.245993,-0.29363 0.06165,-1.27017 -0.105576,-0.55913 -0.313366,-1.9721 -0.461573,-3.14002 -0.148208,-1.16793 -0.377929,-2.75945 -0.510554,-3.53678 -0.178067,-1.04371 -0.202552,-1.43816 -0.09382,-1.50794 0.28867,-0.18525 0.436133,-0.0925 0.507917,0.31952 0.478056,2.74407 0.614944,3.60699 0.790889,4.98387 0.235233,1.8407 0.661048,2.95803 1.127371,2.95803 0.300549,0 0.300154,-0.0166 -0.08894,-3.60122 -0.103647,-0.95493 -0.227415,-2.46562 -0.275062,-3.35724 l -0.08664,-1.62116 0.822165,-0.0889 c 0.452137,-0.0489 2.760932,-0.32048 5.130623,-0.60362 2.36969,-0.28314 4.674332,-0.52641 5.121582,-0.5407 z m -65.715075,0.20892 c -0.06996,3.7e-4 -0.140184,0.005 -0.214767,0.0106 -0.768271,0.0637 -1.222787,0.35302 -1.60195,1.01979 -0.627381,1.10331 -0.137127,2.22413 1.34177,3.06768 1.536879,0.87661 4.299999,1.70003 6.457507,1.92428 1.505114,0.15644 3.556176,0.0575 4.093122,-0.19725 0.84333,-0.40018 0.846187,-1.3327 0.0057,-1.84384 -0.217748,-0.13241 -1.379651,-0.6434 -2.582173,-1.13547 -1.202531,-0.49208 -3.280769,-1.34369 -4.618189,-1.89246 -1.911875,-0.78447 -2.391287,-0.95585 -2.880974,-0.95329 z m 102.026964,8.11899 c -0.21643,0.002 -0.46935,0.0115 -0.76922,0.0275 -3.55237,0.18932 -7.52456,1.14454 -9.64802,2.32012 -1.3905,0.7698 -1.76657,1.33107 -1.26414,1.88623 0.27612,0.30511 0.28595,0.30448 2.96688,-0.16673 2.07287,-0.36434 2.63029,-0.40937 5.97069,-0.48229 3.4402,-0.0751 3.70319,-0.0974 3.96802,-0.33724 0.70342,-0.63719 0.85972,-1.76304 0.34986,-2.51962 -0.38625,-0.57315 -0.63615,-0.73365 -1.57407,-0.72797 z m -67.358644,4.0089 c 0.01756,0.0171 -0.191797,0.5472 -0.465153,1.17805 -0.684657,1.5801 -2.650686,6.48167 -3.6583,9.12089 l -0.8346,2.18654 0.116994,1.86475 c 0.236272,3.7645 1.069981,10.87378 1.734575,14.79051 0.442889,2.61015 1.223925,6.42831 2.120978,10.36958 0.420635,1.8481 0.73106,3.44784 0.689911,3.55506 -0.04115,0.10724 0.100309,1.40217 0.314246,2.87759 0.459853,3.17135 0.805098,6.11397 0.72665,6.19243 -0.03073,0.0308 -0.824326,-0.15369 -1.763588,-0.40977 -0.93926,-0.25609 -2.364127,-0.59365 -3.166394,-0.75001 -1.324692,-0.25816 -1.490497,-0.26631 -1.804094,-0.0897 -0.285901,0.16104 -0.347017,0.28791 -0.355693,0.73757 -0.0073,0.3778 -0.08572,0.59865 -0.257352,0.72533 -0.33725,0.24894 -0.148709,0.38968 0.754531,0.56368 0.538877,0.10382 1.159032,0.39598 2.250595,1.0603 l 1.506991,0.91712 -0.836107,-0.0948 c -0.45979,-0.0521 -1.239104,-0.0922 -1.731749,-0.0897 -0.764907,0.005 -0.929199,0.0462 -1.125297,0.28843 -0.126303,0.15597 -0.229657,0.38514 -0.229657,0.50924 0,0.35459 0.478306,0.87258 0.93445,1.01188 0.228791,0.0699 1.699341,0.1991 3.267942,0.28712 3.209067,0.18007 2.994473,0.0904 2.998156,1.25152 0.0017,0.5468 -0.0019,0.55128 -0.284104,0.35363 -0.656144,-0.45958 -1.386039,-0.0956 -1.386039,0.69123 0,0.49627 0.67782,2.58923 1.036185,3.19936 0.13739,0.23394 0.250003,0.48463 0.250003,0.5569 0,0.0723 -0.284595,0.8937 -0.632262,1.82538 -0.347662,0.93169 -0.996398,2.97602 -1.441616,4.54302 l -0.809355,2.84913 -0.652796,0.27054 c -0.865165,0.35859 -3.211065,1.66767 -4.53887,2.53282 -0.586012,0.38182 -1.092565,0.69424 -1.125486,0.69424 -0.168588,0 -0.07397,-4.80083 0.51847,-26.30141 0.505328,-18.33856 0.617748,-24.50992 0.540324,-29.65072 -0.0562,-3.73056 -0.115031,-4.9515 -0.259047,-5.36952 -0.183741,-0.53331 -0.182134,-0.54107 0.110778,-0.54107 0.394764,0 0.723598,-0.4432 1.22025,-1.64434 0.225669,-0.54577 0.900409,-1.97612 1.499454,-3.17863 1.122893,-2.25411 4.709345,-8.93942 4.766076,-8.88427 z m -35.303968,8.85054 c -1.854269,-0.004 -3.5979185,0.15021 -3.9895051,0.44028 -1.2420501,0.92005 -1.2573293,2.7746 -0.029768,3.61253 0.3865904,0.26389 0.5727375,0.28937 2.1128771,0.28937 3.238279,0 8.884658,-0.94433 9.203022,-1.53921 0.2651,-0.49533 0.155898,-1.00114 -0.287304,-1.33158 -0.567693,-0.42327 -1.885609,-0.92489 -3.065983,-1.16694 -0.99195,-0.20341 -2.501136,-0.30159 -3.943339,-0.30445 z m 97.265792,2.94314 c -0.24696,-9.2e-4 -0.50015,-9.2e-4 -0.75943,1.9e-4 -0.27658,0.002 -0.5602,0.005 -0.85081,0.009 -3.64967,0.0559 -3.96196,0.12107 -4.22745,0.88264 -0.18976,0.54435 0.0787,1.18408 0.57839,1.37869 0.20322,0.0791 1.44027,0.29591 2.7489,0.48173 1.30863,0.18582 3.13172,0.47416 4.0513,0.64074 0.91957,0.16658 1.81659,0.32809 1.99343,0.3589 0.83837,0.14604 2.98426,0.0841 3.33294,-0.0963 0.38227,-0.19768 0.7826,-0.88692 0.7826,-1.34742 0,-0.45785 -0.34492,-1.13356 -0.69632,-1.36381 -0.93222,-0.61082 -3.24922,-0.9254 -6.95355,-0.94425 z m -90.298854,13.36454 c -0.143136,0.003 -0.322455,0.0147 -0.557285,0.0314 -1.970637,0.14115 -4.886829,1.39306 -7.856545,3.3725 -1.7651013,1.17652 -3.8647058,2.94396 -4.2528875,3.5803 -0.713896,1.1703 -0.2746581,2.6229 0.9630903,3.18505 0.6018102,0.27333 1.2518892,0.31057 1.6584657,0.095 0.3387465,-0.17965 1.7172385,-1.2215 4.1392775,-3.12814 0.99032,-0.77959 2.784013,-2.08298 3.985926,-2.89643 1.201904,-0.81342 2.439633,-1.72256 2.7506,-2.02037 0.522307,-0.50021 0.559541,-0.57875 0.487949,-1.02903 -0.05123,-0.32216 -0.217044,-0.61299 -0.488895,-0.85796 -0.296941,-0.26758 -0.400471,-0.34083 -0.829696,-0.33233 z m 66.372195,18.71595 c -0.142861,-3.6e-4 -0.303186,2e-4 -0.483808,9.2e-4 -1.337844,0.007 -1.887675,0.0805 -3.6939,0.49323 -8.267977,1.88938 -15.630208,4.06363 -21.167011,6.2512 -2.557342,1.01041 -4.555444,2.09581 -4.555444,2.47461 0,0.22244 0.897302,0.006 3.624386,-0.87831 7.579393,-2.45522 16.69491,-4.74865 24.220178,-6.09371 3.21883,-0.57533 3.437801,-0.65871 3.617798,-1.37586 0.05908,-0.23534 0.0055,-0.4004 -0.196314,-0.60194 -0.223437,-0.22336 -0.365828,-0.26783 -1.365885,-0.27035 z M 48.86904,234.6516 c 0.008,0.002 0.01878,0.009 0.03203,0.0226 0.08491,0.0849 1.578024,5.40462 1.586118,5.65116 0.004,0.12324 -0.211332,0.10458 -0.736446,-0.0639 -0.329965,-0.10585 -0.418254,-0.20459 -0.418618,-0.4691 -0.0013,-0.59541 -0.387897,-4.83058 -0.458748,-5.02569 -0.02832,-0.078 -0.02846,-0.12088 -0.0043,-0.11512 z m 0.69952,7.57075 c 0.393904,0 1.596159,0.32295 1.631522,0.43822 0.0237,0.0774 0.574619,1.90587 1.224201,4.06336 1.598188,5.30809 2.573925,8.39676 2.703693,8.55795 0.06238,0.0774 -0.140508,0.78181 -0.481924,1.67202 -0.682759,1.78027 -3.641338,10.57421 -3.641338,10.82342 0,0.38838 -0.270459,0.0791 -1.284119,-1.46799 -1.701807,-2.59737 -2.830147,-4.8736 -2.55316,-5.15058 0.06681,-0.0668 0.145012,-0.52054 0.173702,-1.00831 0.07892,-1.34211 0.329285,-2.13894 0.689346,-2.1939 0.904983,-0.13811 2.982996,-1.97116 3.655667,-3.2246 0.487336,-0.90808 0.77358,-2.33359 0.665412,-3.31372 -0.116785,-1.05832 -0.615173,-2.50444 -1.220627,-3.54111 -0.516925,-0.8851 -0.68442,-1.0247 -1.229854,-1.0247 -0.30456,0 -0.311044,-0.0226 -0.311044,-1.09309 v -1.09326 h 0.385838 c 0.214357,0 0.500098,-0.11426 0.642999,-0.25717 0.509755,-0.50974 0.231496,-1.2259 -0.651477,-1.67635 -0.456742,-0.23301 -0.673418,-0.51018 -0.398837,-0.51019 z m 0.06612,9.57625 c 0.05166,0.005 0.126295,0.0462 0.240206,0.12603 0.157749,0.11049 0.389722,0.20102 0.515454,0.20102 0.27119,0 0.289845,0.3121 0.09269,1.54336 -0.178433,1.11432 -0.557669,1.86609 -1.313695,2.6044 -0.63746,0.62251 -1.122641,0.95808 -1.122661,0.7762 -7e-6,-0.0835 1.302223,-4.60477 1.485325,-5.15701 0.02222,-0.067 0.05102,-0.0989 0.102678,-0.094 z m -0.731925,0.41089 c 0.01169,-0.004 0.01257,0.0139 1.93e-4,0.056 -0.664287,2.24407 -1.368353,5.17261 -1.628318,6.77308 -0.0833,0.51284 -0.189589,0.92377 -0.23625,0.91316 -0.04666,-0.0106 -0.244061,-0.0435 -0.438589,-0.073 -0.194525,-0.0295 -0.353623,-0.0995 -0.353623,-0.15561 0,-0.22055 2.334493,-7.00516 2.519815,-7.3232 0.06784,-0.11642 0.117305,-0.18379 0.136777,-0.19047 z m 38.926673,24.77557 c -0.388733,-0.004 -0.769041,0.0419 -1.144332,0.13451 -1.586115,0.3914 -2.669634,1.32363 -3.46293,2.97932 -1.218027,2.54208 -1.207562,5.2989 0.02453,6.44262 0.468859,0.43524 0.90727,0.65714 1.74136,0.8817 1.600145,0.4308 3.926368,0.16523 6.811509,-0.77769 3.078957,-1.00628 5.12806,-2.21519 4.926591,-2.9066 -0.106394,-0.36512 -0.530619,-0.74624 -0.830644,-0.74624 -0.123107,0 -0.794693,0.32778 -1.492492,0.72853 -1.540324,0.88462 -2.985673,1.47962 -4.634761,1.90809 -2.897802,0.7529 -4.8136,0.6438 -5.624978,-0.32047 -0.299043,-0.35539 -0.342317,-0.52004 -0.342317,-1.3039 0,-1.83241 0.649417,-3.72631 1.605713,-4.68262 0.76011,-0.76011 1.488798,-1.00825 2.732891,-0.93086 1.172299,0.073 2.145482,0.48204 3.058817,1.286 1.028814,0.90559 1.225643,1.65684 0.598534,2.28394 -0.444024,0.44402 -1.060567,0.63509 -2.373614,0.73513 l -1.001334,0.0763 0.08122,-0.50717 c 0.05687,-0.35589 0.02821,-0.5512 -0.09627,-0.65449 -0.231972,-0.19252 -0.366407,-0.0882 -0.786746,0.60984 -0.191684,0.31832 -0.439192,0.70475 -0.549932,0.85871 -0.186152,0.25883 -0.181154,0.30002 0.06542,0.54655 0.236851,0.23683 0.421726,0.26658 1.654316,0.26658 1.544412,0 2.617934,-0.22164 3.458979,-0.7144 2.136552,-1.25185 1.283517,-4.00618 -1.693501,-5.46805 -0.974608,-0.47859 -1.870742,-0.71844 -2.725927,-0.72533 z m -21.604099,13.61378 c 0.04713,0.003 0.106458,0.013 0.18086,0.0292 3.159625,0.69083 5.35451,0.84317 14.179538,0.98343 8.345668,0.13266 11.35782,0.33215 13.890162,0.92033 0.669749,0.15556 0.553358,0.16929 -2.186543,0.25904 -1.591572,0.0521 -3.906477,0.15922 -5.144368,0.23795 -2.942895,0.18717 -12.60013,0.26805 -14.083085,0.11794 -2.396519,-0.2426 -4.122297,-0.69448 -5.94846,-1.55748 -0.830148,-0.39232 -1.061054,-0.55987 -1.061054,-0.76998 0,-0.16948 0.03161,-0.22876 0.17295,-0.22043 z m 8.453394,4.44807 c -0.187641,2.8e-4 -0.395514,3.6e-4 -0.58479,7.2e-4 0.02453,3.7e-4 0.04897,0.002 0.0735,0.002 0.126313,0.002 0.252736,0.002 0.379049,1.9e-4 0.0441,-2.9e-4 0.0882,-0.002 0.132257,-0.003 z"
       inkscape:connector-curvature="0" />
  </g>
</svg>
